<?xml version="1.0" encoding="UTF-8" standalone="no"?>
<!-- Created with Inkscape (http://www.inkscape.org/) -->

<svg
   width="284.3493mm"
   height="125.50426mm"
   viewBox="0 0 284.3493 125.50426"
   version="1.1"
   id="svg1"
   xml:space="preserve"
   xmlns="http://www.w3.org/2000/svg"
   xmlns:svg="http://www.w3.org/2000/svg"><defs
     id="defs1"><linearGradient
       id="linearGradient13885"><stop
         style="stop-color:#000000;stop-opacity:1;"
         offset="0"
         id="stop13883" /></linearGradient><style
       id="style8591">.a{fill:none;stroke:#000000;stroke-linecap:round;stroke-linejoin:round;}</style></defs><g
     id="layer1"
     transform="translate(37.21392,-85.747872)"><g
       id="layer1-6"
       transform="translate(-43.781537,76.788478)"><rect
         style="fill:#f1f0f4;stroke-width:0.324001;fill-opacity:1"
         id="rect846"
         width="284.3493"
         height="125.50426"
         x="6.5676174"
         y="8.9593935" /><path
         style="fill:#ffffff;stroke-width:1.91182"
         d=""
         id="path7678"
         transform="matrix(0.26458333,0,0,0.26458333,6.5676174,8.9593935)" /><path
         style="fill:#190262;stroke-width:1.22457;fill-opacity:1"
         id="path8285"
         d="M 69.714577,88.103022 38.559525,67.920767 4.2715946,82.143926 13.838618,46.277051 -10.283962,18.062489 26.783836,16.077795 46.163192,-15.582922 59.505327,19.057345 95.605008,27.704508 66.783103,51.098064 Z"
         transform="matrix(0.26458333,0,0,0.26458333,13.238309,15.722402)" /><path
         style="fill:#190262;stroke-width:1.22457;fill-opacity:1"
         id="path8289"
         d="m 855.11345,194.9969 -27.27655,-12.36508 -24.78125,16.81651 3.33098,-29.76256 -23.65128,-18.37178 29.3352,-6.02919 10.16396,-28.17089 14.79918,26.03631 29.93294,0.96121 -20.1888,22.12052 z"
         transform="matrix(0.26458333,0,0,0.26458333,59.099049,-2.2310459)" /><path
         style="fill:#190262;stroke-width:1.22457;fill-opacity:1"
         id="path8291"
         d="m 417.82368,462.72361 -38.15117,-10.13538 -29.97776,25.68212 -2.15004,-39.41592 -33.68878,-20.57434 36.82237,-14.225 9.15695,-38.39775 24.90751,30.62439 39.34809,-3.15678 -21.42868,33.15191 z"
         transform="matrix(0.19597279,0,0,0.19466253,-43.747137,37.596461)" /><g
         id="g13953"
         transform="translate(-5.2923337,20.243634)"><g
           id="g13938"><g
             aria-label="Read The Voice"
             id="text4252"
             style="font-size:37.7838px;line-height:1.25;font-family:'Madimi One';-inkscape-font-specification:'Madimi One, Normal';fill:#190262;stroke-width:0.264583;fill-opacity:1"><path
               d="m 35.507258,87.028079 q -1.284649,0 -2.040325,-0.566757 -0.755676,-0.604541 -0.755676,-1.700271 V 68.43845 q 0,-4.38292 2.304812,-6.423245 2.342595,-2.078109 7.292273,-2.078109 4.042866,0 6.158759,2.040325 2.153677,2.002541 2.153677,5.818705 0,1.322433 -0.07557,2.569298 -0.07557,1.209082 -0.226703,1.700271 -0.566757,2.078109 -2.078109,3.173839 2.040325,1.700271 2.040325,3.929515 v 5.592002 q 0,2.342596 -2.607082,2.342596 -1.284649,0 -2.040325,-0.566757 Q 44.87764,85.932349 44.87764,84.761051 V 79.77359 q 0,-2.040325 -0.642324,-2.871569 -0.604541,-0.831243 -2.493731,-0.831243 -2.040325,0 -2.833785,0.906811 -0.755676,0.869027 -0.755676,3.249406 v 4.534056 q 0,2.267028 -2.644866,2.267028 z m 2.342596,-14.055573 q 0.944595,-0.79346 1.662487,-1.020162 0.755676,-0.264487 2.153676,-0.264487 1.88919,0 2.758218,-0.188919 0.906811,-0.188919 1.171297,-0.79346 0.264487,-0.60454 0.264487,-1.88919 0,-2.569298 -0.79346,-3.551677 -0.755676,-1.020162 -2.758217,-1.020162 -2.229244,0 -3.173839,1.020162 -0.906811,1.020163 -0.906811,3.551677 0,1.246866 -0.113352,2.229244 -0.07557,0.944595 -0.264486,1.926974 z"
               id="path14108"
               style="fill:#190262;fill-opacity:1" /><path
               d="m 63.580575,87.103647 q -3.77838,0 -5.932056,-1.246866 -2.115893,-1.246865 -3.022704,-3.438325 -0.869027,-2.191461 -0.869027,-5.025245 0,-5.214165 2.304811,-7.481192 2.304812,-2.304812 6.196543,-2.304812 2.342596,0 4.156218,0.79346 1.813622,0.793459 2.833785,2.267028 1.020163,1.435784 1.020163,3.513893 0,6.045407 -8.614706,6.045407 h -2.191461 q 0.302271,1.171298 0.982379,1.851407 0.717892,0.642324 2.493731,0.642324 0.982378,0 1.586919,-0.113351 0.604541,-0.113352 1.133514,-0.226703 0.566757,-0.113351 1.284649,-0.113351 1.020163,0 1.624704,0.377838 0.60454,0.340054 0.60454,1.435784 0,1.549136 -1.360216,2.304812 -1.322433,0.717892 -4.231786,0.717892 z m -4.38292,-9.672653 q 0.30227,-0.415621 0.680108,-0.528973 0.377838,-0.151135 1.171298,-0.151135 2.229244,0 3.060487,-0.415622 0.869028,-0.453405 0.869028,-1.586919 0,-1.435785 -0.79346,-2.191461 -0.79346,-0.793459 -2.002541,-0.793459 -1.398001,0 -2.191461,1.171297 -0.793459,1.171298 -0.793459,4.496272 z"
               id="path14105"
               style="fill:#190262;fill-opacity:1" /><path
               d="m 80.394293,87.103647 q -3.77838,0 -5.894273,-1.738055 -2.115892,-1.775839 -2.115892,-4.57184 0,-3.28719 2.758217,-4.760758 2.796001,-1.473568 8.1613,-1.020163 -0.264486,-1.738054 -1.09573,-2.342595 -0.831243,-0.642325 -2.002541,-0.642325 -0.944595,0 -1.58692,0.113352 -0.60454,0.07557 -1.133513,0.188919 -0.528974,0.113351 -1.28465,0.113351 -1.020162,0 -1.624703,-0.340054 -0.604541,-0.377838 -0.604541,-1.473568 0,-1.549136 1.322433,-2.267028 1.360217,-0.755676 4.269569,-0.755676 4.609624,0 6.838868,2.644866 2.229244,2.607082 2.229244,6.990002 0,5.063029 -1.851406,7.481192 -1.813622,2.38038 -6.385462,2.38038 z m -2.569298,-6.309895 q 0,2.153677 2.909352,2.153677 0.944595,0 1.473568,-0.340054 0.528973,-0.340054 0.755676,-1.360217 0.264487,-1.020163 0.377838,-3.060488 -0.188919,0.188919 -0.491189,0.264487 -0.302271,0.07557 -0.604541,0.07557 -2.493731,0 -3.476109,0.491189 -0.944595,0.453405 -0.944595,1.775838 z"
               id="path14102"
               style="fill:#190262;fill-opacity:1" /><path
               d="m 100.23072,87.103647 q -4.156221,0 -6.574384,-2.644866 -2.380379,-2.644866 -2.380379,-7.745679 0,-3.400542 0.982378,-5.403083 0.982379,-2.002541 2.720434,-2.833785 1.775838,-0.869027 4.005082,-0.869027 2.002539,0 3.249409,0.491189 1.24686,0.49119 1.96476,1.662487 -0.26449,-0.793459 -0.41563,-1.473568 -0.11335,-0.717892 -0.18892,-1.662487 -0.0378,-0.944595 -0.0378,-2.418163 v -3.249407 q 0,-2.947136 2.53152,-2.947136 2.75821,0 2.75821,2.947136 v 15.982547 q 0,5.100813 -2.26703,7.632327 -2.26702,2.531515 -6.34767,2.531515 z m -0.26449,-4.534056 q 1.58692,0 2.45595,-1.133514 0.90681,-1.133514 0.90681,-4.231785 0,-2.078109 -0.41562,-3.136056 -0.37784,-1.09573 -1.13352,-1.511352 -0.75567,-0.415621 -1.81362,-0.415621 -1.057946,0 -1.813622,0.415621 -0.755676,0.415622 -1.171298,1.511352 -0.377838,1.057947 -0.377838,3.136056 0,3.098271 0.869027,4.231785 0.906812,1.133514 2.493731,1.133514 z"
               id="path14099"
               style="fill:#190262;fill-opacity:1" /><path
               d="m 129.85314,87.103647 q -0.94459,0 -1.92697,-0.415622 -0.9446,-0.453406 -0.9446,-1.435784 V 67.569423 q 0,-1.209081 0.60454,-1.662487 0.60454,-0.453406 0.98238,-0.566757 h -7.29227 q -0.90681,0 -1.36022,-0.79346 -0.41562,-0.831243 -0.41562,-1.700271 0,-0.944595 0.45341,-1.700271 0.4534,-0.793459 1.32243,-0.793459 h 16.88936 q 0.86902,0 1.32243,0.793459 0.45341,0.755676 0.45341,1.700271 0,0.869028 -0.45341,1.700271 -0.41562,0.79346 -1.32243,0.79346 h -5.74314 v 19.912062 q 0,0.944595 -0.79346,1.398 -0.75568,0.453406 -1.77584,0.453406 z"
               id="path14096"
               style="fill:#190262;fill-opacity:1" /><path
               d="m 147.12027,84.572132 q 0,2.531515 -2.64487,2.531515 -1.28465,0 -2.04033,-0.642325 -0.75567,-0.642324 -0.75567,-1.88919 V 60.957258 q 0,-2.947136 2.75822,-2.947136 2.72043,0 2.72043,2.947136 v 4.042867 q 0,1.057946 -0.2267,2.040325 -0.22671,0.982379 -0.75568,2.040325 0.64233,-0.79346 1.70027,-1.133514 1.05795,-0.340054 2.45595,-0.340054 2.49373,0 4.34514,0.982379 1.8514,0.982378 2.87156,2.758217 1.05795,1.738055 1.05795,4.156218 v 9.068111 q 0,2.531515 -2.64487,2.531515 -1.28464,0 -2.04032,-0.642325 -0.75568,-0.642324 -0.75568,-1.88919 v -8.841409 q 0,-1.775838 -0.83124,-2.682649 -0.79346,-0.906811 -2.22924,-0.906811 -1.398,0 -2.19146,0.944595 -0.79346,0.906811 -0.79346,2.644865 z"
               id="path14093"
               style="fill:#190262;fill-opacity:1" /><path
               d="m 172.05752,87.103647 q -3.77838,0 -5.93206,-1.246866 -2.11589,-1.246865 -3.0227,-3.438325 -0.86903,-2.191461 -0.86903,-5.025245 0,-5.214165 2.30481,-7.481192 2.30481,-2.304812 6.19654,-2.304812 2.3426,0 4.15622,0.79346 1.81362,0.793459 2.83379,2.267028 1.02016,1.435784 1.02016,3.513893 0,6.045407 -8.61471,6.045407 h -2.19146 q 0.30227,1.171298 0.98238,1.851407 0.71789,0.642324 2.49373,0.642324 0.98238,0 1.58692,-0.113351 0.60454,-0.113352 1.13351,-0.226703 0.56676,-0.113351 1.28465,-0.113351 1.02017,0 1.62471,0.377838 0.60454,0.340054 0.60454,1.435784 0,1.549136 -1.36022,2.304812 -1.32243,0.717892 -4.23178,0.717892 z m -4.38293,-9.672653 q 0.30228,-0.415621 0.68011,-0.528973 0.37784,-0.151135 1.1713,-0.151135 2.22925,0 3.06049,-0.415622 0.86903,-0.453405 0.86903,-1.586919 0,-1.435785 -0.79346,-2.191461 -0.79346,-0.793459 -2.00255,-0.793459 -1.398,0 -2.19146,1.171297 -0.79346,1.171298 -0.79346,4.496272 z"
               id="path14090"
               style="fill:#190262;fill-opacity:1" /><path
               d="m 199.97961,87.103647 q -1.51136,0 -2.796,-1.09573 -1.28465,-1.095731 -1.92698,-3.060488 l -6.27211,-18.967467 q -0.60454,-1.926973 0.18892,-2.98492 0.83124,-1.057946 2.19146,-1.057946 1.32243,0 2.00254,0.869027 0.71789,0.831244 1.32244,2.796001 l 5.47865,17.153845 q 1.02016,-2.947137 2.00254,-5.251948 1.02016,-2.342596 1.70027,-4.307353 0.68011,-2.002542 0.71789,-3.853948 0.0378,-0.944595 -0.15114,-1.700271 -0.15113,-0.755676 -0.34005,-1.511352 -0.15113,-0.793459 -0.15113,-1.738054 0,-0.906811 0.6801,-1.662487 0.68011,-0.79346 2.3426,-0.79346 1.24686,0 1.92697,0.944595 0.68011,0.906811 0.90681,2.267028 0.26449,1.322433 0.26449,2.644866 0,3.136055 -0.75568,6.007623 -0.75567,2.833785 -2.04032,5.554219 -1.24687,2.720433 -2.75822,5.592002 -0.68011,1.473568 -1.28465,2.418163 -0.60454,0.906811 -1.36021,1.322433 -0.7179,0.415622 -1.88919,0.415622 z"
               id="path14087"
               style="fill:#190262;fill-opacity:1" /><path
               d="m 220.19383,87.103647 q -4.04287,0 -6.38547,-2.304812 -2.34259,-2.304812 -2.34259,-7.443408 0,-5.176381 2.34259,-7.443408 2.3426,-2.304812 6.38547,-2.304812 4.04286,0 6.38546,2.304812 2.34259,2.267027 2.34259,7.443408 0,5.138596 -2.34259,7.443408 -2.3426,2.304812 -6.38546,2.304812 z m 0,-4.534056 q 1.05794,0 1.77583,-0.415622 0.7179,-0.453405 1.09573,-1.586919 0.41563,-1.133514 0.41563,-3.211623 0,-2.078109 -0.41563,-3.211623 -0.37783,-1.133514 -1.09573,-1.549136 -0.71789,-0.453405 -1.77583,-0.453405 -1.02017,0 -1.77584,0.453405 -0.7179,0.415622 -1.13352,1.549136 -0.37783,1.133514 -0.37783,3.211623 0,2.078109 0.37783,3.211623 0.41562,1.133514 1.13352,1.586919 0.75567,0.415622 1.77584,0.415622 z"
               id="path14084"
               style="fill:#190262;fill-opacity:1" /><path
               d="m 235.26952,64.3578 q -1.398,0 -2.34259,-0.906811 -0.9446,-0.906811 -0.9446,-2.229244 0,-1.398001 0.9446,-2.304812 0.94459,-0.906811 2.34259,-0.906811 1.43579,0 2.3426,0.906811 0.94459,0.906811 0.94459,2.304812 0,1.322433 -0.94459,2.229244 -0.90681,0.906811 -2.3426,0.906811 z m 2.72044,20.214332 q 0,2.531515 -2.64487,2.531515 -1.28465,0 -2.04032,-0.604541 -0.75568,-0.642325 -0.75568,-1.926974 V 70.176505 q 0,-1.209081 0.60454,-1.88919 0.64233,-0.680108 2.11589,-0.680108 1.47357,0 2.07811,0.680108 0.64233,0.680109 0.64233,1.88919 z"
               id="path14081"
               style="fill:#190262;fill-opacity:1" /><path
               d="m 250.68526,87.103647 q -4.60963,0 -6.83887,-2.644866 -2.22925,-2.68265 -2.22925,-7.06557 0,-4.382921 2.22925,-7.065571 2.22924,-2.720433 6.83887,-2.720433 2.90935,0 4.23178,0.604541 1.36022,0.60454 1.36022,2.153676 0,1.09573 -0.60454,1.58692 -0.60454,0.491189 -1.62471,0.491189 -0.71789,0 -1.13351,-0.113351 -0.41562,-0.113352 -0.90681,-0.188919 -0.45341,-0.113352 -1.43579,-0.113352 -1.32243,0 -2.11589,0.79346 -0.75567,0.79346 -1.09573,2.040325 -0.30227,1.209082 -0.30227,2.531515 0,1.284649 0.2267,2.531514 0.26449,1.209082 1.02017,2.002541 0.75567,0.755676 2.30481,0.755676 1.43578,0 2.11589,-0.188919 0.68011,-0.226702 1.32243,-0.226702 1.02017,0 1.62471,0.377838 0.60454,0.340054 0.60454,1.435784 0,1.549136 -1.36022,2.304812 -1.32243,0.717892 -4.23178,0.717892 z"
               id="path14078"
               style="fill:#190262;fill-opacity:1" /><path
               d="m 268.67022,87.103647 q -3.77838,0 -5.93206,-1.246866 -2.11589,-1.246865 -3.0227,-3.438325 -0.86903,-2.191461 -0.86903,-5.025245 0,-5.214165 2.30481,-7.481192 2.30481,-2.304812 6.19654,-2.304812 2.3426,0 4.15622,0.79346 1.81362,0.793459 2.83379,2.267028 1.02016,1.435784 1.02016,3.513893 0,6.045407 -8.61471,6.045407 h -2.19146 q 0.30227,1.171298 0.98238,1.851407 0.71789,0.642324 2.49373,0.642324 0.98238,0 1.58692,-0.113351 0.60454,-0.113352 1.13352,-0.226703 0.56675,-0.113351 1.28464,-0.113351 1.02017,0 1.62471,0.377838 0.60454,0.340054 0.60454,1.435784 0,1.549136 -1.36022,2.304812 -1.32243,0.717892 -4.23178,0.717892 z m -4.38292,-9.672653 q 0.30227,-0.415621 0.6801,-0.528973 0.37784,-0.151135 1.1713,-0.151135 2.22925,0 3.06049,-0.415622 0.86903,-0.453405 0.86903,-1.586919 0,-1.435785 -0.79346,-2.191461 -0.79346,-0.793459 -2.00254,-0.793459 -1.398,0 -2.19146,1.171297 -0.79346,1.171298 -0.79346,4.496272 z"
               id="path14075"
               style="fill:#190262;fill-opacity:1" /></g><g
             style="fill:none"
             id="g8589"
             transform="matrix(0.34257847,0,0,0.31884678,222.32123,49.249401)"><path
               fill-rule="evenodd"
               clip-rule="evenodd"
               d="m 37.7725,38.1035 c 20.1291,-0.0062 36.3283,-0.2705 36.3283,-0.5956 0,-0.3201 -15.7017,-0.5812 -35.3965,-0.5951 C 48.417,27.1776 55.9586,19.3752 55.7994,19.2161 55.6377,19.0544 47.5927,26.8355 37.6459,36.7671 37.6396,16.6467 37.3754,0.45752 37.0504,0.45752 36.7253,0.45752 36.461,16.657 36.4548,36.7863 26.4992,26.8456 18.4439,19.0543 18.2822,19.2161 18.123,19.3753 25.6646,27.1777 35.3773,36.9128 15.6914,36.9269 0,37.188 0,37.5079 c 0,0.325 16.1889,0.5892 36.309,0.5956 -10.1577,10.165 -18.191,18.4655 -18.0268,18.6298 0.1618,0.1617 8.2173,-7.6297 18.1731,-17.5706 0.0139,19.6944 0.275,35.3956 0.5951,35.3956 0.3199,0 0.581,-15.691 0.5951,-35.3764 9.9469,9.9317 17.9922,17.7131 18.1539,17.5514 0.1642,-0.1642 -7.8692,-8.4648 -18.0269,-18.6298 z"
               fill="currentColor"
               id="path14072" /><path
               fill-rule="evenodd"
               clip-rule="evenodd"
               d="m 37.7725,38.1035 c 20.1291,-0.0062 36.3283,-0.2705 36.3283,-0.5956 0,-0.3201 -15.7017,-0.5812 -35.3965,-0.5951 C 48.417,27.1776 55.9586,19.3752 55.7994,19.2161 55.6377,19.0544 47.5927,26.8355 37.6459,36.7671 37.6396,16.6467 37.3754,0.45752 37.0504,0.45752 36.7253,0.45752 36.461,16.657 36.4548,36.7863 26.4992,26.8456 18.4439,19.0543 18.2822,19.2161 18.123,19.3753 25.6646,27.1777 35.3773,36.9128 15.6914,36.9269 0,37.188 0,37.5079 c 0,0.325 16.1889,0.5892 36.309,0.5956 -10.1577,10.165 -18.191,18.4655 -18.0268,18.6298 0.1618,0.1617 8.2173,-7.6297 18.1731,-17.5706 0.0139,19.6944 0.275,35.3956 0.5951,35.3956 0.3199,0 0.581,-15.691 0.5951,-35.3764 9.9469,9.9317 17.9922,17.7131 18.1539,17.5514 0.1642,-0.1642 -7.8692,-8.4648 -18.0269,-18.6298 z"
               fill="currentColor"
               fill-opacity="0.2"
               id="path14069"
               style="fill:#6699ee;fill-opacity:1" /></g></g><g
           id="g11869"
           transform="translate(8.9803645,-2.6458334)"><g
             style="fill:#190262;fill-opacity:1"
             id="g11751"
             transform="matrix(1.9226131,0,0,1.1965551,76.390723,17.281407)"><path
               d="M 1,16 V 8 a 1,1 0 0 1 2,0 v 8 a 1,1 0 0 1 -2,0 z m 7,4 V 4 A 1,1 0 0 0 6,4 v 16 a 1,1 0 0 0 2,0 z m 5,2 V 2 a 1,1 0 0 0 -2,0 v 20 a 1,1 0 0 0 2,0 z m 5,-2 V 4 a 1,1 0 0 0 -2,0 v 16 a 1,1 0 0 0 2,0 z M 22,7 a 1,1 0 0 0 -1,1 v 8 a 1,1 0 0 0 2,0 V 8 A 1,1 0 0 0 22,7 Z"
               id="path11742"
               style="fill:#190262;fill-opacity:1" /></g><g
             style="fill:#6699ee;fill-opacity:1"
             id="g11857"
             transform="matrix(1.9226131,0,0,1.1965551,121.80859,17.281407)"><path
               d="M 1,16 V 8 a 1,1 0 0 1 2,0 v 8 a 1,1 0 0 1 -2,0 z m 7,4 V 4 A 1,1 0 0 0 6,4 v 16 a 1,1 0 0 0 2,0 z m 5,2 V 2 a 1,1 0 0 0 -2,0 v 20 a 1,1 0 0 0 2,0 z m 5,-2 V 4 a 1,1 0 0 0 -2,0 v 16 a 1,1 0 0 0 2,0 z M 22,7 a 1,1 0 0 0 -1,1 v 8 a 1,1 0 0 0 2,0 V 8 A 1,1 0 0 0 22,7 Z"
               id="path11855"
               style="fill:#190262;fill-opacity:1" /></g><g
             style="fill:#6699ee;fill-opacity:1"
             id="g11861"
             transform="matrix(1.9226131,0,0,1.1965551,167.57504,17.281407)"><path
               d="M 1,16 V 8 a 1,1 0 0 1 2,0 v 8 a 1,1 0 0 1 -2,0 z m 7,4 V 4 A 1,1 0 0 0 6,4 v 16 a 1,1 0 0 0 2,0 z m 5,2 V 2 a 1,1 0 0 0 -2,0 v 20 a 1,1 0 0 0 2,0 z m 5,-2 V 4 a 1,1 0 0 0 -2,0 v 16 a 1,1 0 0 0 2,0 z M 22,7 a 1,1 0 0 0 -1,1 v 8 a 1,1 0 0 0 2,0 V 8 A 1,1 0 0 0 22,7 Z"
               id="path11859"
               style="fill:#190262;fill-opacity:1" /></g></g></g></g></g></svg>
