<?xml version="1.0" encoding="UTF-8" standalone="no"?>
<!-- Created with Inkscape (http://www.inkscape.org/) -->

<svg
   width="33.982983mm"
   height="4.0745859mm"
   viewBox="0 0 33.982983 4.0745859"
   version="1.1"
   id="svg5"
   xmlns="http://www.w3.org/2000/svg"
   xmlns:svg="http://www.w3.org/2000/svg">
  <defs
     id="defs2" />
  <g
     id="layer1"
     transform="translate(-61.696945,-26.157988)">
    <g
       aria-label="ReadTheVoice"
       id="text3474"
       style="font-size:5.29167px;line-height:1.25;font-family:'Madimi One';-inkscape-font-specification:'Madimi One, Normal';stroke-width:0.264583;fill:#ffffff">
      <path
         d="m 62.088529,30.221991 q -0.179917,0 -0.28575,-0.07937 -0.105834,-0.08467 -0.105834,-0.238125 v -2.286002 q 0,-0.613833 0.322792,-0.899584 0.328084,-0.291041 1.021292,-0.291041 0.566209,0 0.862543,0.28575 0.301625,0.280458 0.301625,0.814917 0,0.185208 -0.01058,0.359833 -0.01058,0.169334 -0.03175,0.238126 -0.07937,0.291041 -0.291041,0.4445 0.28575,0.238125 0.28575,0.550334 v 0.783167 q 0,0.328083 -0.365125,0.328083 -0.179917,0 -0.285751,-0.07937 -0.105833,-0.08467 -0.105833,-0.248708 V 29.20599 q 0,-0.28575 -0.08996,-0.402167 -0.08467,-0.116416 -0.349251,-0.116416 -0.28575,0 -0.396875,0.127 -0.105833,0.121708 -0.105833,0.455083 v 0.635001 q 0,0.3175 -0.370417,0.3175 z m 0.328083,-1.968501 q 0.132292,-0.111125 0.232834,-0.142875 0.105833,-0.03704 0.301625,-0.03704 0.264584,0 0.386292,-0.02646 0.127,-0.02646 0.164042,-0.111125 0.03704,-0.08467 0.03704,-0.264584 0,-0.359834 -0.111125,-0.497417 -0.105833,-0.142875 -0.386292,-0.142875 -0.312208,0 -0.4445,0.142875 -0.127,0.142875 -0.127,0.497417 0,0.174625 -0.01588,0.312209 -0.01058,0.132291 -0.03704,0.269875 z"
         id="path7185"
         style="fill:#ffffff" />
      <path
         d="m 66.020233,30.232574 q -0.529167,0 -0.830792,-0.174625 -0.296333,-0.174625 -0.423334,-0.481542 -0.121708,-0.306917 -0.121708,-0.703792 0,-0.73025 0.322792,-1.047751 0.322792,-0.322791 0.867834,-0.322791 0.328083,0 0.582083,0.111125 0.254001,0.111125 0.396876,0.3175 0.142875,0.201083 0.142875,0.492125 0,0.846667 -1.206501,0.846667 h -0.306917 q 0.04233,0.164042 0.137584,0.259292 0.100541,0.08996 0.34925,0.08996 0.137583,0 0.22225,-0.01588 0.08467,-0.01588 0.15875,-0.03175 0.07937,-0.01587 0.179917,-0.01587 0.142875,0 0.227542,0.05292 0.08467,0.04763 0.08467,0.201084 0,0.216958 -0.1905,0.322791 -0.185208,0.100542 -0.592667,0.100542 z M 65.4064,28.877907 q 0.04233,-0.05821 0.09525,-0.07408 0.05292,-0.02117 0.164041,-0.02117 0.312209,0 0.428626,-0.05821 0.121708,-0.0635 0.121708,-0.22225 0,-0.201083 -0.111125,-0.306917 -0.111125,-0.111125 -0.280459,-0.111125 -0.195791,0 -0.306916,0.164042 Q 65.4064,28.41224 65.4064,28.877907 Z"
         id="path7182"
         style="fill:#ffffff" />
      <path
         d="m 68.375017,30.232574 q -0.529167,0 -0.825501,-0.243417 -0.296333,-0.248708 -0.296333,-0.640292 0,-0.460375 0.386291,-0.66675 0.391584,-0.206375 1.143001,-0.142875 -0.03704,-0.243417 -0.153458,-0.328084 -0.116417,-0.08996 -0.280459,-0.08996 -0.132292,0 -0.22225,0.01588 -0.08467,0.01058 -0.15875,0.02646 -0.07408,0.01588 -0.179917,0.01588 -0.142875,0 -0.227542,-0.04763 -0.08467,-0.05292 -0.08467,-0.206375 0,-0.216958 0.185208,-0.3175 0.1905,-0.105833 0.597959,-0.105833 0.645584,0 0.957792,0.370416 0.312209,0.365126 0.312209,0.978959 0,0.709084 -0.259292,1.047751 -0.254,0.333375 -0.894292,0.333375 z m -0.359834,-0.883709 q 0,0.301626 0.407459,0.301626 0.132291,0 0.206375,-0.04763 0.07408,-0.04763 0.105833,-0.190501 0.03704,-0.142875 0.05292,-0.428625 -0.02646,0.02646 -0.06879,0.03704 -0.04233,0.01058 -0.08467,0.01058 -0.34925,0 -0.486833,0.06879 -0.132292,0.0635 -0.132292,0.248708 z"
         id="path7179"
         style="fill:#ffffff" />
      <path
         d="m 71.153133,30.232574 q -0.582084,0 -0.920751,-0.370417 -0.333375,-0.370417 -0.333375,-1.084792 0,-0.47625 0.137583,-0.756709 0.137584,-0.280458 0.381001,-0.396875 0.248708,-0.121708 0.560917,-0.121708 0.280458,0 0.455083,0.06879 0.174625,0.06879 0.275167,0.232834 -0.03704,-0.111125 -0.05821,-0.206375 -0.01587,-0.100542 -0.02646,-0.232834 -0.0053,-0.132292 -0.0053,-0.338667 v -0.455083 q 0,-0.412751 0.354542,-0.412751 0.386291,0 0.386291,0.412751 v 2.238376 q 0,0.714375 -0.3175,1.068917 -0.3175,0.354542 -0.889,0.354542 z m -0.03704,-0.635 q 0.22225,0 0.343959,-0.15875 0.127,-0.15875 0.127,-0.592667 0,-0.291042 -0.05821,-0.439209 -0.05292,-0.153458 -0.15875,-0.211667 -0.105833,-0.05821 -0.254,-0.05821 -0.148167,0 -0.254,0.05821 -0.105834,0.05821 -0.164042,0.211667 -0.05292,0.148167 -0.05292,0.439209 0,0.433917 0.121709,0.592667 0.127,0.15875 0.34925,0.15875 z"
         id="path7176"
         style="fill:#ffffff" />
      <path
         d="m 75.301792,30.232574 q -0.132292,0 -0.269875,-0.05821 -0.132292,-0.0635 -0.132292,-0.201084 v -2.476501 q 0,-0.169334 0.08467,-0.232834 0.08467,-0.0635 0.137583,-0.07938 h -1.021292 q -0.127,0 -0.1905,-0.111125 -0.05821,-0.116416 -0.05821,-0.238125 0,-0.132292 0.0635,-0.238125 0.0635,-0.111125 0.185209,-0.111125 h 2.365376 q 0.121709,0 0.185209,0.111125 0.0635,0.105833 0.0635,0.238125 0,0.121709 -0.0635,0.238125 -0.05821,0.111125 -0.185209,0.111125 h -0.804334 v 2.78871 q 0,0.132292 -0.111125,0.195792 -0.105833,0.0635 -0.248708,0.0635 z"
         id="path7173"
         style="fill:#ffffff" />
      <path
         d="m 77.720075,29.878032 q 0,0.354542 -0.370417,0.354542 -0.179917,0 -0.28575,-0.08996 -0.105833,-0.08996 -0.105833,-0.264584 v -3.307293 q 0,-0.412751 0.386292,-0.412751 0.381,0 0.381,0.412751 v 0.566208 q 0,0.148167 -0.03175,0.285751 -0.03175,0.137583 -0.105834,0.28575 0.08996,-0.111125 0.238126,-0.15875 0.148166,-0.04763 0.343958,-0.04763 0.34925,0 0.608542,0.137583 0.259292,0.137583 0.402167,0.386292 0.148167,0.243417 0.148167,0.582084 v 1.27 q 0,0.354542 -0.370417,0.354542 -0.179917,0 -0.28575,-0.08996 -0.105834,-0.08996 -0.105834,-0.264584 v -1.23825 q 0,-0.248709 -0.116416,-0.375709 -0.111126,-0.127 -0.312209,-0.127 -0.195792,0 -0.306917,0.132292 -0.111125,0.127 -0.111125,0.370417 z"
         id="path7170"
         style="fill:#ffffff" />
      <path
         d="m 81.212568,30.232574 q -0.529167,0 -0.830792,-0.174625 -0.296334,-0.174625 -0.423334,-0.481542 -0.121708,-0.306917 -0.121708,-0.703792 0,-0.73025 0.322792,-1.047751 0.322792,-0.322791 0.867834,-0.322791 0.328083,0 0.582083,0.111125 0.254,0.111125 0.396876,0.3175 0.142875,0.201083 0.142875,0.492125 0,0.846667 -1.206501,0.846667 h -0.306917 q 0.04233,0.164042 0.137584,0.259292 0.100541,0.08996 0.34925,0.08996 0.137583,0 0.22225,-0.01588 0.08467,-0.01588 0.15875,-0.03175 0.07937,-0.01587 0.179917,-0.01587 0.142875,0 0.227542,0.05292 0.08467,0.04763 0.08467,0.201084 0,0.216958 -0.1905,0.322791 -0.185208,0.100542 -0.592667,0.100542 z m -0.613834,-1.354667 q 0.04233,-0.05821 0.09525,-0.07408 0.05292,-0.02117 0.164042,-0.02117 0.312209,0 0.428625,-0.05821 0.121709,-0.0635 0.121709,-0.22225 0,-0.201083 -0.111125,-0.306917 -0.111125,-0.111125 -0.280459,-0.111125 -0.195791,0 -0.306917,0.164042 -0.111125,0.164042 -0.111125,0.629709 z"
         id="path7167"
         style="fill:#ffffff" />
      <path
         d="m 85.123095,30.232574 q -0.211666,0 -0.391583,-0.153458 -0.179917,-0.153459 -0.269875,-0.428625 l -0.878418,-2.656419 q -0.08467,-0.269875 0.02646,-0.418042 0.116417,-0.148166 0.306917,-0.148166 0.185208,0 0.280458,0.121708 0.100542,0.116417 0.185209,0.391584 l 0.767292,2.402418 q 0.142875,-0.412751 0.280458,-0.735542 0.142875,-0.328084 0.238125,-0.603251 0.09525,-0.280458 0.100542,-0.53975 0.0053,-0.132292 -0.02117,-0.238125 -0.02117,-0.105834 -0.04762,-0.211667 -0.02117,-0.111125 -0.02117,-0.243417 0,-0.127 0.09525,-0.232833 0.09525,-0.111125 0.328083,-0.111125 0.174625,0 0.269875,0.132291 0.09525,0.127 0.127001,0.317501 0.03704,0.185208 0.03704,0.370416 0,0.439209 -0.105833,0.841376 -0.105834,0.396875 -0.28575,0.777875 -0.174625,0.381001 -0.386292,0.783168 -0.09525,0.206375 -0.179917,0.338666 -0.08467,0.127 -0.1905,0.185209 -0.100542,0.05821 -0.264584,0.05821 z"
         id="path7164"
         style="fill:#ffffff" />
      <path
         d="m 87.954123,30.232574 q -0.566208,0 -0.894292,-0.322792 -0.328083,-0.322792 -0.328083,-1.042459 0,-0.724958 0.328083,-1.042459 0.328084,-0.322791 0.894292,-0.322791 0.566209,0 0.894293,0.322791 0.328083,0.317501 0.328083,1.042459 0,0.719667 -0.328083,1.042459 -0.328084,0.322792 -0.894293,0.322792 z m 0,-0.635 q 0.148167,0 0.248709,-0.05821 0.100542,-0.0635 0.153458,-0.22225 0.05821,-0.15875 0.05821,-0.449792 0,-0.291041 -0.05821,-0.449792 -0.05292,-0.15875 -0.153458,-0.216958 -0.100542,-0.0635 -0.248709,-0.0635 -0.142875,0 -0.248708,0.0635 -0.100542,0.05821 -0.15875,0.216958 -0.05292,0.158751 -0.05292,0.449792 0,0.291042 0.05292,0.449792 0.05821,0.15875 0.15875,0.22225 0.105833,0.05821 0.248708,0.05821 z"
         id="path7161"
         style="fill:#ffffff" />
      <path
         d="m 90.065492,27.046989 q -0.195792,0 -0.328084,-0.127 -0.132292,-0.127 -0.132292,-0.312209 0,-0.195791 0.132292,-0.322791 0.132292,-0.127001 0.328084,-0.127001 0.201083,0 0.328083,0.127001 0.132292,0.127 0.132292,0.322791 0,0.185209 -0.132292,0.312209 -0.127,0.127 -0.328083,0.127 z m 0.381,2.831043 q 0,0.354542 -0.370417,0.354542 -0.179917,0 -0.28575,-0.08467 -0.105834,-0.08996 -0.105834,-0.269876 v -2.016126 q 0,-0.169333 0.08467,-0.264583 0.08996,-0.09525 0.296334,-0.09525 0.206375,0 0.291041,0.09525 0.08996,0.09525 0.08996,0.264583 z"
         id="path7158"
         style="fill:#ffffff" />
      <path
         d="m 92.224485,30.232574 q -0.645583,0 -0.957792,-0.370417 -0.312208,-0.375708 -0.312208,-0.989542 0,-0.613834 0.312208,-0.989542 0.312209,-0.381 0.957792,-0.381 0.407459,0 0.592667,0.08467 0.190501,0.08467 0.190501,0.301625 0,0.153459 -0.08467,0.222251 -0.08467,0.06879 -0.227542,0.06879 -0.100542,0 -0.15875,-0.01588 -0.05821,-0.01587 -0.127,-0.02646 -0.0635,-0.01588 -0.201084,-0.01588 -0.185208,0 -0.296333,0.111125 -0.105834,0.111125 -0.153459,0.28575 -0.04233,0.169334 -0.04233,0.354542 0,0.179917 0.03175,0.354542 0.03704,0.169333 0.142875,0.280458 0.105834,0.105834 0.322792,0.105834 0.201084,0 0.296334,-0.02646 0.09525,-0.03175 0.185208,-0.03175 0.142875,0 0.227542,0.05292 0.08467,0.04763 0.08467,0.201084 0,0.216958 -0.190501,0.322791 -0.185208,0.100542 -0.592667,0.100542 z"
         id="path7155"
         style="fill:#ffffff" />
      <path
         d="m 94.743303,30.232574 q -0.529167,0 -0.830792,-0.174625 -0.296334,-0.174625 -0.423334,-0.481542 -0.121708,-0.306917 -0.121708,-0.703792 0,-0.73025 0.322792,-1.047751 0.322792,-0.322791 0.867834,-0.322791 0.328083,0 0.582083,0.111125 0.254001,0.111125 0.396876,0.3175 0.142875,0.201083 0.142875,0.492125 0,0.846667 -1.206501,0.846667 h -0.306917 q 0.04233,0.164042 0.137584,0.259292 0.100541,0.08996 0.34925,0.08996 0.137583,0 0.22225,-0.01588 0.08467,-0.01588 0.15875,-0.03175 0.07937,-0.01587 0.179917,-0.01587 0.142875,0 0.227542,0.05292 0.08467,0.04763 0.08467,0.201084 0,0.216958 -0.1905,0.322791 -0.185208,0.100542 -0.592667,0.100542 z m -0.613834,-1.354667 q 0.04233,-0.05821 0.09525,-0.07408 0.05292,-0.02117 0.164042,-0.02117 0.312209,0 0.428625,-0.05821 0.121709,-0.0635 0.121709,-0.22225 0,-0.201083 -0.111125,-0.306917 -0.111125,-0.111125 -0.280459,-0.111125 -0.195791,0 -0.306917,0.164042 -0.111125,0.164042 -0.111125,0.629709 z"
         id="path7152"
         style="fill:#ffffff" />
    </g>
  </g>
</svg>
