<?xml version="1.0" standalone="no"?>
<svg version="1.1" id="Layer_1_15_" xmlns="http://www.w3.org/2000/svg" xmlns:xlink="http://www.w3.org/1999/xlink" x="0px" y="0px" viewBox="0 0 595.276 595.276" enable-background="new 0 0 595.276 595.276" xml:space="preserve">
<path id="color_x5F_7" fill="#E96257" d="M288.875,281.5c-0.248-0.68-0.402-1.618,0.272-2.22
	c0.287-0.256,0.555-0.403,0.736-0.403c0.458,0,1.037,1.056,1.25,1.811c0.124,0.446,0.53,0.751,0.999,0.733
	c0.462-0.016,0.854-0.347,0.945-0.801c0.293-1.444,1.467-2.741,1.897-2.742c0.002,0.001,0.246,0.127,0.472,0.928
	c0.64,2.266-1.827,4.94-3.153,6.065C291.03,284.6,289.449,283.074,288.875,281.5z M400.609,326.002
	c0.139-2.457,0.32-5.034,0.621-7.696c0.087-0.766,0.188-1.499,0.282-2.246c-3.76,1.439-13.614,4.736-25.017,4.736
	c-0.285,0-0.576-0.015-0.863-0.019C377.578,323.521,383.836,329.33,400.609,326.002z M403.387,303.842
	c-7.327-0.148-13.08,2.297-19.586,8.259c-3.452,3.163-7.282,5.309-10.062,6.611c13.414,0.637,25.489-3.882,28.066-4.922
	C402.287,310.326,402.837,307.045,403.387,303.842z M237.751,228.124l1.791-0.895c-0.046-0.208-0.072-0.445-0.059-0.701
	c-0.075,0.105-0.172,0.198-0.289,0.271c-3.732,2.308-4.429,3.386-4.559,3.688c0.473,0.283,2.278,0.5,5.22,0.16
	c0.832-0.096,1.159-1.076,1.283-1.98l-2.493,1.246c-0.496,0.248-1.095,0.047-1.342-0.447
	C237.057,228.972,237.258,228.372,237.751,228.124z M233.369,242.337c2.243,1.51,6.923,3.462,13.22-0.196
	c0.399-2.531,1.541-4.38,2.54-5.571c-1.341-3.702-5.633-4.742-7.057-4.986c-0.471,0.555-1.115,0.95-1.986,1.051
	c-1.181,0.137-2.17,0.195-2.998,0.195c-1.682,0-2.7-0.239-3.329-0.545c-0.047,0.033-0.085,0.076-0.139,0.1
	c-1.059,0.48-3.771,2.077-4.335,3.944c0.011,0.015,0.025,0.024,0.035,0.039c0.218,0.336,0.203,0.751,0.005,1.069
	C229.703,238.672,231.019,240.754,233.369,242.337z M268.168,249.583c0.063-1.135-0.096-2.353-0.354-2.586
	c-0.002,0.028-0.675,0.13-2.296,2.118c-1.152,1.414-3.382,2.509-5.421,2.665c-1.464,0.113-2.712-0.253-3.603-1.057
	c-1.145-1.034-1.231-2.537-0.966-3.912c-0.326,0.051-0.647,0.083-0.96,0.083c-0.97,0-1.879-0.243-2.719-0.728
	c-1.578-0.912-2.592-2.532-3.226-3.98c-0.244,1.296-0.264,2.817,0.138,4.577c0.713,3.126,3.678,5.738,7.553,6.655
	C260.77,254.473,265.181,253.041,268.168,249.583z M223.919,239.576c-0.592,0.682-0.742,1.496-0.458,2.488
	c0.501,1.75,4.73,3.43,9.629,3.825c1.378,0.111,2.537,0.094,3.503,0.008c-1.837-0.437-3.312-1.207-4.342-1.901
	c-2.66-1.791-4.351-4.229-4.871-6.108C226.392,238.052,224.796,238.565,223.919,239.576z M242.838,225.965
	c-0.162,0.024-0.292,0.056-0.422,0.087c0.091,0.02,0.18,0.051,0.263,0.097c0.289,0.161,0.479,0.455,0.509,0.784
	c0.071,0.791,0.035,1.817-0.213,2.782c1.987,0.417,5.919,1.688,7.694,5.346c0.028-0.021,0.064-0.05,0.084-0.064
	c0.22-0.203,1.024-0.918,2.332-1.821C250.982,225.625,245.244,225.605,242.838,225.965z M255.301,234.131
	c-2.052,1.274-3.194,2.338-3.223,2.366c-0.037,0.035-0.076,0.066-0.117,0.095c-0.095,0.067-1.267,0.921-2.232,2.589
	c0.224,0.977,1.078,4.076,3.125,5.256c0.968,0.558,2.082,0.597,3.398,0.132c0.148-0.333,0.285-0.604,0.389-0.799
	c-0.18-2.117,0.21-3.602,1.202-4.517c1.295-1.193,3.19-0.993,4.502-0.735c0.007,0.001,0.015,0.004,0.022,0.006
	c-0.06-0.297-0.181-0.647-0.421-1.024C261.262,236.426,259.549,235.01,255.301,234.131z M227.086,226.337
	c-0.975,2.315-1.138,4.184-0.483,5.554c0.544,1.14,1.516,1.636,1.938,1.807c1.4-1.666,3.448-2.747,4.068-3.048
	c-0.084-1.45,1.587-3.11,5.534-5.551c0.469-0.29,1.085-0.144,1.376,0.325c0.071,0.115,0.114,0.238,0.135,0.363
	c0.018-0.044,0.026-0.087,0.048-0.132c0.427-0.888,1.382-1.449,2.84-1.666c2.638-0.395,5.585,0.042,8.034,1.804
	c-1.516-4.38-4.398-6.889-8.447-7.286C236.049,217.906,228.781,222.314,227.086,226.337z M276.101,236.056
	c0.966-1.221,1.217-2.571,0.689-3.705c-0.725-1.555-2.796-2.496-5.683-2.582c-5.419-0.16-9.967,1.327-13.252,2.945
	c2.865,0.87,4.821,2.142,5.833,3.8c0.556,0.911,0.716,1.758,0.73,2.393C270.527,239.939,274.442,238.151,276.101,236.056z
	 M258.244,246.727c-0.225-0.026-0.406-0.112-0.57-0.219c-0.321,1.074-0.432,2.197,0.16,2.731c0.599,0.54,1.478,0.6,2.11,0.547
	c1.487-0.113,3.217-0.945,4.024-1.934c0.365-0.448,0.764-0.903,1.182-1.318c0.014-2.764-1.483-5.654-3.186-5.985
	c-1.408-0.274-2.288-0.231-2.766,0.21c-0.529,0.487-0.717,1.562-0.542,3.14c0.005,0.046,0.01,0.082,0.016,0.124
	c0.34-0.62,0.739-1.509,1.044-2.36c0.186-0.52,0.757-0.794,1.279-0.606c0.52,0.187,0.791,0.758,0.604,1.278
	C259.952,246.93,258.711,246.779,258.244,246.727z M360.284,123.24c6.252,0.166,11.523,1.856,15.618,3.356
	c0.002-0.002,0.002-0.004,0.003-0.005c1.744-2.207,2.135-3.965,1.16-5.224c-2.84-3.665-14.992-3.385-18.186-1.973
	c-0.767,0.339-1.216,0.727-1.232,1.065C357.608,121.242,359.098,122.527,360.284,123.24z M255.169,255.181
	c-4.275-1.234-7.521-4.303-8.358-7.973c-0.22-0.963-0.334-1.869-0.363-2.717c-1.839,0.922-3.554,1.43-5.125,1.64
	c-1.129,1.5-3.984,1.84-6.261,1.84c-0.828,0-1.576-0.043-2.132-0.088c-0.361-0.029-0.73-0.068-1.102-0.112
	c0.249,2.33,0.477,8.325-3.105,12.101c-0.01,0.321-0.054,0.785-0.17,1.327c3.464,0.923,7.303,4.125,8.145,4.855l4.548,1.362
	C242.843,266.845,251.037,263.573,255.169,255.181z M229.158,247.327c-3.581-0.775-6.924-2.283-7.62-4.712
	c-0.73-2.552,0.406-4.723,3.117-5.958c0.023-0.011,1.402-0.597,2.683-0.769c0.043-0.161,0.097-0.318,0.157-0.472
	c-0.765-0.367-1.954-1.136-2.678-2.621c-0.934-1.914-0.791-4.348,0.425-7.233c1.88-4.461,8.935-9.12,15.723-9.111
	c-8.074-3.394-19.126,1.181-26.504,8.775c-8.479,8.728-5.477,13.676-5.446,13.725c0.181,0.283,0.215,0.649,0.079,0.957
	c-0.411,0.924-0.347,2.081,0.178,3.257c1.175,2.629,4.28,4.922,8.52,6.291C223.307,251.232,227.465,248.671,229.158,247.327z
	 M225.177,263.552c0.491-0.552,0.821-1.112,1.051-1.634c0.001-0.017-0.007-0.032-0.005-0.049c0.018-0.204,0.109-0.377,0.228-0.526
	c0.008-0.024,0.02-0.05,0.027-0.074c-3.915,1.984-8.038,1.508-11.193,1.146c-1.188-0.137-2.21-0.254-2.976-0.208
	c-1.383,0.086-1.508,0.33-1.88,1.053c-0.347,0.676-0.823,1.603-2.17,2.519c-1.979,1.346-4.003,1.199-5.628,1.081
	c-0.408-0.029-0.805-0.058-1.164-0.058c-0.343,0-0.652,0.026-0.901,0.103c-0.68,0.21-1.273,0.853-1.477,1.6
	c-0.124,0.454-0.151,1.128,0.425,1.762c0.19,0.21,0.526,0.13,2.117-0.508c2.405-0.965,6.429-2.58,13.999-2.864
	C220.139,266.727,223.352,265.602,225.177,263.552z M218.183,257.464c0.524-0.03,0.983,0.357,1.045,0.879
	c0.063,0.523-0.29,1.005-0.808,1.102c-0.157,0.04-0.678,0.252-0.706,1.207c3.145,0.253,6.672,0.098,9.802-2.429
	c2.269-2.638,2.509-6.574,2.409-8.971c-1.652,1.201-4.569,2.812-8.365,2.812c-0.749,0-1.536-0.071-2.35-0.212
	c-0.007,0.003-0.01,0.01-0.017,0.014c-0.104,0.053-2.287,1.174-3.909,1.967c0.095,0.903,0.403,2.307,1.201,3.064
	C216.925,257.316,217.47,257.498,218.183,257.464z M320.438,150.173c0.339-5.205-4.028-9.243-6.096-10.848
	c-0.141,0.413-0.283,0.822-0.428,1.227c-0.129,0.361-0.269,0.739-0.413,1.124c1.578,0.597,5.441,2.633,6.869,8.447
	C320.393,150.14,320.415,150.156,320.438,150.173z M315.671,147.16c0.634,0.337,1.29,0.703,1.948,1.099
	c-0.331-0.706-0.703-1.317-1.097-1.838C316.418,146.833,316.071,147.112,315.671,147.16z M315.227,145.026
	c-0.493-0.429-0.973-0.753-1.395-0.992C314.189,144.544,314.784,144.854,315.227,145.026z M312,145.386
	c0.169,0.074,0.361,0.16,0.571,0.254c-0.162-0.167-0.312-0.348-0.446-0.544C312.084,145.192,312.042,145.289,312,145.386z
	 M300.499,159.911c0.939,1.162,2.074,2.868,2.158,4.36c0.629,0.487,2.735,0.985,6.146,0.757c4.796-0.315,10.615-2,12.058-4.955
	c0.645-1.322,0.284-1.936,0.166-2.137c-1.193-2.034-6.872-2.349-9.01-2.467l-0.518-0.03c-1.993-0.123-3.551-0.694-4.449-1.111
	C305.145,156.926,302.951,159.017,300.499,159.911z M308.198,152.645c0.761,0.32,1.945,0.708,3.425,0.799l0.506,0.029
	c2.438,0.135,7.096,0.4,9.53,2.265c0.172-0.304,0.212-0.611,0.124-0.964c-0.136-0.548-0.545-1.14-1.126-1.746
	c-0.182-0.099-0.327-0.237-0.417-0.416c-2.172-2.013-6.122-4.13-9.064-5.403C310.304,149.056,309.307,150.918,308.198,152.645z
	 M234.09,165.128c-1.754,3.292-0.184,5.275-0.116,5.358c0.317,0.388,0.306,0.959-0.036,1.325c-1.884,2.017-2.749,3.666-2.311,4.409
	c1.253,2.132,11.482,1.108,20.258-1.065c1.328-1.848,2.938-2.18,3.884-2.18c0.331,0,0.551,0.043,0.611,0.056
	c0.738,0.085,1.739,0.452,2.699,1.458c4.334-2.693,4.435-10.12,4.412-11.518c-1.705-1.855-3.166-4.463-3.262-8.036
	c-0.072-2.67,0.83-4.305,2.013-5.178c-0.285-0.94-0.964-2.117-2.124-2.786c-0.936-0.54-2.007-0.654-3.188-0.329
	c-2.998,0.825-3.764,5.145-3.771,5.188c-0.085,0.503-0.542,0.862-1.044,0.833c-1.926-0.11-3.289,0.196-4.049,0.914
	c-0.814,0.769-0.883,1.992-0.883,3.079c-0.001,0.983-0.853,1.698-2.29,2.427c-0.038,0.039-0.064,0.088-0.109,0.122
	c-0.163,0.121-0.351,0.178-0.539,0.189c-0.704,0.326-1.502,0.662-2.397,1.033C238.843,161.675,235.102,163.229,234.09,165.128z
	 M246.693,152.302c1.053-0.993,2.589-1.302,4.679-1.302c0.004,0,0.008,0,0.012,0c0.445-2,1.752-5.211,5.016-6.109
	c1.689-0.463,3.322-0.374,4.718,0.433c1.362,0.786,2.444,2.116,2.974,3.67c0.122-0.018,0.242-0.032,0.362-0.039
	c0.771-0.049,1.572,0.106,2.358,0.432c0.594-2.682-1.276-7.217-4.677-9.283c-1.867-1.134-4.583-2.337-6.925-1.627
	c-1.496,0.454-2.717,1.674-3.628,3.628c-2.078,4.456-2.79,4.975-4.454,5.421c-0.434,0.116-0.882,0.236-1.528,0.584
	c-0.216,0.116-0.333,0.271-0.391,0.517c-0.222,0.943,0.474,2.602,1.235,3.949C246.526,152.485,246.599,152.391,246.693,152.302z
	 M236.832,188.059c0.815-0.101,1.705-0.126,2.688-0.052c2.12,0.157,3.94,0.792,5.492,1.693l4.705-1.507
	c-0.032-1.296-0.042-2.522-0.029-3.6c0.035-3.135,0.438-5.421,1.026-7.103c-3.183,0.723-9.117,1.904-13.895,1.904
	c-1.626,0-3.117-0.137-4.32-0.475c-0.201,1.037-0.263,2.482,0.508,3.306c0.365,0.39,0.359,0.997-0.012,1.38
	c-0.457,0.47-2.461,2.408-4.242,2.253c-0.118,0.576-0.02,1.451,1.004,2.428C232.898,187.856,235.705,187.979,236.832,188.059z
	 M296.369,156.455c0.748-0.708,1.691-1.336,2.622-0.952c1.108,0.459,1.105,1.907,1.093,2.192c-0.002,0.044-0.006,0.086-0.014,0.129
	c-0.003,0.014-0.012,0.062-0.02,0.102c1.939-0.791,3.914-2.632,5.833-5.393c0.007-0.012,0.007-0.025,0.015-0.037
	c0.011-0.017,0.028-0.025,0.039-0.04c2.146-3.106,4.221-7.348,6.094-12.578c4.587-12.808,5.587-24.513,4.022-26.153
	c-0.054-0.057-0.066-0.074-0.207-0.03c-1.995,0.609-4.547,4.012-7.128,8.521c-0.018,0.276-0.148,0.476-0.347,0.606
	c-5.11,9.113-10.243,22.293-11.312,26.59C296.228,152.759,296.244,155.146,296.369,156.455z"></path>
<path id="color_x5F_6" fill="#1ACEBD" d="M215.094,221.864c-0.447-0.587-1.204-1.524-2.206-2.592
	c0.911,0.844,2.281,1.278,3.501,1.497C215.95,221.126,215.518,221.49,215.094,221.864z M255.01,207.454
	c-0.081,0-0.176-0.012-0.27-0.024l0.468,9.193l-0.038-9.184C255.117,207.442,255.064,207.454,255.01,207.454L255.01,207.454z
	 M280.621,125.222c-0.292,0-0.485,0.588-0.537,0.769c-0.723,2.504,1.382,3.886,2.575,4.452c0.636-1.584-0.055-3.127-0.311-3.61
	C281.759,125.721,280.983,125.222,280.621,125.222z M275.672,131.975c-0.452-0.185-0.598-0.057-0.661-0.004
	c-0.463,0.397-0.72,1.849-0.327,3.504c0.162,0.685,0.811,2.806,2.525,3.556c0.304-0.562,0.62-1.117,0.943-1.666
	C278.23,136.524,278.376,133.076,275.672,131.975z M280.769,144.862c-1.889-0.635-4.226,1.315-4.841,1.872
	c-0.503,1.3-0.972,2.614-1.4,3.938C280.318,148.631,280.811,145.887,280.769,144.862z M292.897,130.258
	c-1.106-0.44-2.191-0.663-3.235-0.663c-2.313,0-3.991,1.071-4.919,1.869c1.375,0.689,2.656,1.038,3.82,1.038
	C290.812,132.502,292.204,131.175,292.897,130.258z M270.776,141.499c-0.473,1.811-1.046,5.746,1.935,8.087
	c0.21-0.633,0.432-1.264,0.659-1.893c-0.123-0.199-0.186-0.436-0.145-0.684C273.254,146.834,273.833,143.027,270.776,141.499z
	 M404.385,160.21c-0.472-0.025-0.948-0.039-1.428-0.039c-8.366,0-15.205,3.84-20.359,11.405c6.082,0.689,13.129,0.434,19.095,0.217
	c2.867-0.104,5.576-0.204,7.703-0.17c8.208,0.127,12.327,4.397,12.499,4.579c0.379,0.402,0.36,1.035-0.041,1.414
	c-0.193,0.182-0.44,0.272-0.686,0.272c-0.265,0-0.528-0.105-0.726-0.311c-0.047-0.049-3.77-3.84-11.077-3.953
	c-2.068-0.029-4.635,0.061-7.6,0.169c-6.156,0.225-13.443,0.489-19.767-0.273c1.194,3.974,6.456,17.123,23.807,17.124h0.001
	c0.637,0,1.287-0.018,1.955-0.055c19.299-1.059,23.995-11.994,24.846-14.615c-1.919-1.582-8.866-7.304-12.875-10.555
	c-2.238-1.816-7.895-4.577-14.439-5.139C404.983,160.415,404.654,160.37,404.385,160.21z M370.896,164.172
	c0.128,0.025,0.248,0.076,0.36,0.152c4.578-0.119,10.421-1.975,16.52-8.361c0.381-0.398,1.015-0.414,1.413-0.032
	c0.399,0.381,0.414,1.015,0.032,1.414c-5.527,5.786-10.959,8.082-15.562,8.712c2.455,1.599,5.939,3.327,8.473,2.774
	c6.695-8.696,14.863-10.66,20.824-10.66c0.645,0,1.282,0.03,1.916,0.072c8.317-4.137,7.874-14.495,7.597-17.226
	c-18.474-3.797-29.564-0.118-32.964,10.942C378.002,156.849,373.502,161.679,370.896,164.172z M393.64,203.94
	c0.082,0.132,0.163,0.263,0.248,0.403l8.52,4.84c0.48,0.273,0.648,0.883,0.375,1.364c-0.184,0.324-0.522,0.506-0.87,0.506
	c-0.167,0-0.337-0.042-0.493-0.13l-5.634-3.201c1.097,2.098,2.305,4.673,3.534,7.773c1.316-0.549,3.963-1.418,7.355-1.339
	c-0.488-0.878-0.851-1.914-1.217-2.983c-0.957-2.791-1.946-5.677-5.335-6.645C396.17,203.397,394.369,203.67,393.64,203.94z
	 M400.03,217.347c0.435,1.167,0.87,2.397,1.301,3.696c0.971-0.202,6.299-1.173,14.188,0.021c0.546,0.083,0.922,0.592,0.839,1.139
	c-0.082,0.546-0.592,0.924-1.138,0.839c-7.053-1.068-12.003-0.316-13.271-0.08c0.647,2.072,1.277,4.301,1.88,6.693
	c3.011,0.942,5.564,0.669,7.681-0.208c0.035-0.017,0.069-0.031,0.106-0.044c4.264-1.82,6.727-6.082,7.532-7.697
	C410.439,213.628,402.327,216.323,400.03,217.347z M407.493,232.251c-0.987,0-2.029-0.121-3.126-0.378
	c0.388,1.659,0.76,3.393,1.113,5.199c1.369,0.674,10.885,5.608,21.123,17.357c0.363,0.416,0.319,1.048-0.097,1.411
	c-0.189,0.165-0.424,0.246-0.657,0.246c-0.278,0-0.557-0.116-0.754-0.343c-8.163-9.368-15.975-14.347-19.146-16.147
	c0.537,3.013,1.021,6.211,1.429,9.62c0.439,3.665,0.762,7.077,0.992,10.288c10.061,5.602,17.865-0.939,19.446-2.431
	c-1.199-17.546-13.696-24.534-15.933-25.647C410.563,231.937,409.102,232.251,407.493,232.251z M343.034,127.469
	c-0.008,0-0.016-0.004-0.023-0.004c-8.301,2.763-15.634,8.684-16.182,20.841c2.733,0.048,6.458-0.259,10.896-1.591
	c2.564-0.769,5.291-1.76,8.18-2.809c8.271-3.005,17.647-6.415,26.981-5.905c0.552,0.03,0.975,0.501,0.944,1.053
	c-0.029,0.551-0.533,0.974-1.052,0.944c-8.928-0.485-18.1,2.847-26.19,5.787c-2.917,1.06-5.671,2.06-8.289,2.846
	c-4.395,1.318-8.128,1.698-10.97,1.698c-0.093,0-0.173-0.005-0.264-0.006c0.523,1.753,1.824,4.953,4.534,5.887
	c1.557,0.536,3.988,0.716,7.066,0.943c5.209,0.385,12.332,0.913,21.439,3.492c1.229-0.041,10.747-0.789,18.469-13.921
	c7.331-12.467,6.875-15.23,6.561-15.779c-0.038-0.066-0.117-0.204-0.553-0.204c-0.162,0-0.35,0.02-0.558,0.061
	c-1.643,0.321-4.02-0.539-7.135-1.706c-4.218-1.58-9.994-3.745-16.935-3.873c-4.589-0.089-10.649,0.272-16.336,2.052
	C343.449,127.397,343.246,127.469,343.034,127.469z M309,118.42c2-3.487,4.398-6.028,6.401-6.64c0.852-0.26,1.506-0.06,2.1,0.563
	c2.524,2.647,0.769,14.582-2.5,24.971c0.728,0.522,1.966,1.487,3.23,2.828c1.323-0.982,5.103-4.246,7.513-10.984
	c0.867-2.425,1.613-4.733,2.336-6.966c1.909-5.902,3.417-10.564,5.831-13.354c0.36-0.418,0.992-0.462,1.41-0.102
	c0.418,0.361,0.463,0.993,0.102,1.411c-2.148,2.483-3.673,7.2-5.438,12.661c-0.728,2.247-1.479,4.571-2.357,7.024
	c-2.535,7.089-6.448,10.605-8.093,11.837c0.865,1.127,1.658,2.427,2.201,3.88l3.512-1.141c1.852-10.653,9.23-16.032,17.014-18.69
	c6.72-17.712-2.317-28.721-5.403-31.799c-2.708,4.777-8.789,7.681-15.235,10.742c-1.668,0.792-3.324,1.611-5.029,2.479
	c-8.102,4.123-7.594,10.98-7.594,11.27C309,118.414,309,118.417,309,118.42z M207.497,231.682c0.937-2.227,2.624-4.858,5.531-7.851
	c0.195-0.201,0.396-0.396,0.595-0.592c-0.98-1.299-4.366-5.499-8.823-7.804c-5.696-2.946-12.017-10.41-12.284-10.726
	c-0.355-0.422-0.301-1.053,0.121-1.409c0.421-0.356,1.052-0.303,1.409,0.121c0.063,0.074,6.333,7.476,11.673,10.238
	c2.85,1.474,5.255,3.606,6.975,5.409c-0.514-0.575-0.694-1.258-0.694-2.024v-0.794c0-1.358-0.03-3.068-0.136-4.6
	c-0.287-0.07-0.543-0.25-0.675-0.539c-2.827-6.159-9.876-7.727-13.263-8.48l-0.372-0.083c-3.605-0.81-7.02-1.92-9.171-6.541
	c-0.436-0.937-0.971-1.521-1.468-1.875c0.864,1.601,1.703,4.793,3.152,10.684c1.458,5.925,3.271,13.299,5.636,19.014
	C199.6,233.243,205.965,232.111,207.497,231.682z M207.085,239.566c-0.296-0.644-0.713-1.896-0.617-3.69
	c-2.449,2.12-6.762,4.642-13.484,4.643c-2.346,0-4.981-0.308-7.932-1.047c-0.536-0.135-0.861-0.678-0.727-1.213
	c0.135-0.536,0.68-0.857,1.213-0.727c11.112,2.788,17.368-1.08,20.105-3.626c-3.053,0.035-7.826-1.107-11.157-7.91
	c-0.694-0.076-4.353-0.237-8.477,3.972c-3.545,3.618-7.698,6.193-10.337,6.611c0.77,2.195,2.901,6.758,7.989,9.777
	c6.337,3.76,15.13,4.034,26.133,0.839c-1.034-0.99-1.836-2.072-2.348-3.216C206.769,242.459,206.645,240.912,207.085,239.566z
	 M264.572,150.951c-1.531,0.091-2.407,1.561-2.344,3.931c0.163,6.1,5.098,8.933,6.873,9.757c0.34-2.094,0.748-4.258,1.242-6.455
	C269.77,153.278,266.645,150.837,264.572,150.951z M298.074,157.615c-0.178,0.14-0.423,0.362-0.747,0.715
	c-0.741,0.807-1.487,1.801-2.277,2.854c-1.945,2.592-4.149,5.529-7.245,6.913c-1.568,0.701-4.058,2.598-6.801,4.97
	c-0.125,0.25-0.335,0.434-0.592,0.513c-3.814,3.348-8.015,7.503-10.921,10.663c-0.002,0.367-0.003,0.686-0.002,0.948
	c0.493-0.352,0.986-0.688,1.481-1.002c0.008-0.009,0.011-0.021,0.02-0.03c0.529-0.511,13.033-12.56,19.659-15.904
	C296.257,165.425,297.859,158.648,298.074,157.615z M231.529,171.542c0.142-0.174,0.271-0.343,0.428-0.522
	c-0.529-1.01-1.166-2.973-0.188-5.603c-3.194-0.647-11.253-2.81-13.331-8.415c-0.192-0.518,0.072-1.093,0.59-1.285
	c0.517-0.193,1.093,0.071,1.285,0.59c1.846,4.977,10.091,6.827,12.416,7.255c1.617-2.182,5.175-3.664,8.352-4.984
	c0.039-0.016,0.082-0.034,0.122-0.051c-6.203-6.548-20.233-5.516-21.881-5.369c-2.175,0.195-3.807-0.318-4.979-0.993
	c2.475,11.463,6.621,16.185,9.783,18.119c3.701,2.265,6.841,1.327,6.972,1.287C231.243,171.528,231.389,171.523,231.529,171.542z
	 M279.39,158.504c1.242-2.152,1.422-4.019,0.96-4.684c-0.065-0.094-0.265-0.382-1.062-0.248c-5.103,0.853-7.183,6.837-7.203,6.897
	c-0.038,0.111-0.101,0.205-0.169,0.292c-0.198,0.978-0.386,1.95-0.553,2.906C275.066,163.673,277.915,161.06,279.39,158.504z
	 M310.973,170.073c0.221-0.162,0.498-0.227,0.771-0.175c3.078,0.572,12.87-3.424,13.807-5.619c0.091-0.213,0.089-0.38-0.009-0.576
	c-0.416-0.844-2.116-1.604-3.322-2.007c-2.353,3.425-8.492,5.013-13.284,5.328c-0.238,0.016-0.518,0.031-0.824,0.042
	c0.109,0.18,0.316,0.302,0.635,0.486c0.527,0.304,1.409,0.813,1.318,1.966c-0.076,0.964-1.126,1.492-1.909,1.806
	c-1.303,0.522-3.618,1.046-5.812,1.046c-1.736,0.001-3.397-0.328-4.422-1.243c-0.447-0.399-1.21-0.601-2.128-0.668
	c0.792,0.383,1.615,0.878,2.467,1.547C303.051,175.769,310.894,170.131,310.973,170.073z"></path>
<path id="color_x5F_5" fill="#FFD2BB" d="M252.708,206.852l0.412,8.088c-3.144-1.355-8.251,0.143-9.566,0.571
	c-0.274-0.161-0.552-0.314-0.834-0.456C247.844,207.315,251.433,206.75,252.708,206.852z M259.011,221.882
	c-0.002-0.001-0.004-0.001-0.006-0.002c-0.002-0.001-0.003-0.004-0.005-0.005c-0.778-0.502-1.606-0.823-2.343-1.025
	c-0.131,0.092-0.276,0.151-0.431,0.151c-0.002,0-0.003,0-0.004,0c-0.268,0-0.51-0.162-0.69-0.39
	c-0.542-0.081-0.939-0.091-1.069-0.078c-0.014,0.002-0.023-0.002-0.037-0.001c-0.007,0.001-0.013,0.004-0.02,0.005
	c-0.017,0.001-0.035,0.001-0.052,0.001c-0.015,0-0.028-0.008-0.044-0.008c-0.563,0.012-0.884-0.236-1.044-0.469
	c-0.378-0.546-0.117-1.103,0.042-1.419l-0.065-1.274c-0.138-0.132-0.324-0.273-0.587-0.431c-1.61-0.966-4.809-0.485-7.004,0.059
	c0.218,0.183,0.436,0.366,0.647,0.563c0.03,0.028,0.043,0.066,0.069,0.097c3.434,1.709,5.809,5.193,6.833,10.165
	c0.044,0.214,0,0.419-0.083,0.604c0.68,0.998,1.258,2.187,1.705,3.579c0.024,0.004,0.049,0.008,0.073,0.013
	c1.784-1.052,4.096-2.172,6.856-3c0.341-2.603-0.165-4.668-1.532-6.13C259.851,222.49,259.439,222.159,259.011,221.882z
	 M285.876,187.662c0.471-1.436,0.324-2.795-0.437-4.037c-0.605-0.988-2.17-1.445-4.305-1.251
	c-6.009,0.545-16.412,6.338-20.725,17.509c-0.004,0.01-0.012,0.016-0.016,0.025c-0.584,1.938-1.295,3.668-2.136,5.014
	c-0.363,0.581-0.727,1.053-1.091,1.432l0.006,1.56c0.633,0.243,2.075,0.48,4.084-1.092c0.864-0.676,1.801-1.537,2.793-2.449
	c2.912-2.676,6.536-6.006,11.949-8.22C280.976,194.118,284.853,190.785,285.876,187.662z M265.404,205.846
	c-1.022,0.939-1.988,1.826-2.914,2.551c-1.679,1.313-3.148,1.698-4.293,1.698c-0.375,0-0.713-0.042-1.015-0.106l0.037,8.949
	c0.641,0.18,1.317,0.427,1.99,0.766l11.854-18.555C268.841,202.704,267.003,204.376,265.404,205.846z M256.561,203.862
	c3.749-6,4.901-20.593,2.091-26.465c-0.702-1.466-1.579-2.272-2.607-2.396c-0.103-0.017-0.174-0.025-0.277-0.025
	c-1.921,0-4.003,2.532-4.082,9.64c-0.109,9.762,1.206,18.826,2.994,20.634c0.075,0.076,0.219,0.205,0.331,0.205
	C255.218,205.454,255.776,205.118,256.561,203.862z M405.393,249.454c-4.031-33.723-15.62-47.598-15.736-47.734
	c-0.146-0.184-12.421-15.467-35.006-22.15c-0.315-0.093-0.565-0.335-0.666-0.648l-1.23-3.76l-0.782,4.221
	c-0.075,0.405-0.391,0.723-0.796,0.8l-12.476,2.387c-0.113,0.023-0.231,0.023-0.347,0.005l-8.07-1.303l2.286,1.491
	c0.28,0.182,0.45,0.492,0.454,0.826c0.004,0.334-0.159,0.648-0.435,0.837l-18.961,12.976c-0.162,0.111-0.354,0.172-0.55,0.175
	c-2.647,0.041-8.771,0.663-12.255,2.815c1.638-0.229,3.649-0.166,5.67,0.767c0.039,0.018,0.069,0.047,0.105,0.07
	c0.032,0.02,0.063,0.038,0.093,0.061c0.079,0.062,0.146,0.135,0.202,0.217c0.01,0.014,0.022,0.024,0.031,0.038
	c0.06,0.098,0.099,0.206,0.123,0.32c0.007,0.034,0.006,0.068,0.009,0.103c0.006,0.052,0.017,0.104,0.015,0.157
	c-0.128,2.162-3.301,53.113-17.748,68.014c-10.829,11.168-21.337,8.423-27.756,6.603c-0.336,0.484-0.803,1.365-0.589,2.335
	c0.3,1.357,1.867,2.621,4.533,3.654c6.43,2.492,9.765,7.032,9.168,9.81c-0.249,1.159-1.165,1.859-2.413,1.859
	c-0.061,0-0.122-0.001-0.184-0.005c-0.551-0.029-0.975-0.5-0.945-1.052c0.029-0.551,0.499-0.966,1.052-0.945
	c0.467,0.033,0.504-0.135,0.534-0.277c0.259-1.209-1.655-5.09-7.936-7.524c-3.38-1.311-5.321-3.03-5.768-5.113
	c-0.284-1.321,0.106-2.476,0.549-3.295c-1.145-0.296-2.107-0.478-2.576-0.314c-1.424,0.494-3.162,1.104-4.828,2.7
	c-0.318,0.684-0.617,1.393-0.888,2.134c-1.067,2.68-0.203,5.234,1.001,6.751c1.222,1.54,2.876,2.291,4.425,2.012
	c1.566-0.285,3.558-0.111,6.266,0.544c0.537,0.13,0.867,0.67,0.737,1.207c-0.111,0.458-0.52,0.765-0.971,0.765
	c-0.078,0-0.157-0.009-0.236-0.028c-2.394-0.58-4.174-0.75-5.439-0.521c-2.284,0.415-4.661-0.608-6.348-2.737
	c-1.123-1.416-1.747-3.102-1.88-4.829c-0.63,1.611-1.184,3.574-1.623,5.972c0.123,0.156,0.214,0.339,0.226,0.556
	c0.026,0.466,0.801,11.491,14.108,17.043c1.653,0.689,3.122,1.25,4.433,1.693c0.108-0.1,0.232-0.183,0.382-0.229
	c0.528-0.164,1.088,0.136,1.249,0.664c0.003,0.01,0.014,0.041,0.027,0.085c7.817,2.272,9.088-0.424,11.09-4.708
	c0.233-0.501,0.836-0.716,1.335-0.482c0.5,0.234,0.728,0.829,0.494,1.329c-1.842,3.943-3.438,6.694-7.978,6.694
	c-1.197,0-2.568-0.204-4.229-0.615c0.711,2.622,2.015,7.378,3.322,13.733c0.09,0.172,0.336,0.356,0.336,0.542
	c0,0.041,0,0.122,0,0.21c4,19.836,8.598,54.425,2.297,88.193c-0.09,0.48-0.691,0.816-1.163,0.816c-0.061,0-0.123-0.006-0.185-0.017
	c-0.543-0.102-0.901-0.624-0.799-1.167c5.493-29.442,2.503-59.522-1.014-79.714c-0.358,3.423-0.975,7.635-2.027,12.157
	c0.013,0.075,0.037,0.147,0.032,0.228c-0.012,0.207-0.1,0.383-0.216,0.536c-1.316,5.435-3.281,11.254-6.186,16.632
	c-0.015,0.037-0.015,0.076-0.034,0.111c-0.051,0.096-0.389,0.716-0.963,1.651c-1.855,3.136-4.061,6.076-6.679,8.655
	c-0.456,0.468-0.925,0.931-1.415,1.384c-5.383,29.511,11.048,57.023,29.199,78.812c3.788-1.648,48.233-20.196,83.629-0.7
	c0.037-3.032-0.033-5.914-0.184-8.614c-1.248-22.439-7.933-37.68-8.192-38.261c-1.233-2.045-2.047-4.465-2.581-6.638l-0.008,0.017
	c-3.274-13.356-0.189-33.328,1.294-41.297c-18.393-2.79-36.739-9.337-43.258-12.446c-9.911-4.728-31.585-21.946-31.434-29.224
	c0.012-0.553,0.478-0.983,1.021-0.979c0.552,0.012,0.99,0.467,0.979,1.019c-0.121,5.76,20.193,22.556,30.295,27.374
	c9.512,4.537,44.558,16.512,67.364,12.887c17.51-2.785,17.921-11.963,18.604-27.15c0.038-0.84,0.078-1.734,0.121-2.62
	c-3.454,0.655-6.517,0.913-9.185,0.913c-12.856,0-17.117-6.55-18.074-8.403c-1.229-0.07-2.471,0.482-3.72-0.518
	c-0.002,0-0.005,0-0.007,0c-0.016,0-0.029,0.168-0.045,0.168c-1.065-0.138-2.132-0.124-3.203-0.336
	c-0.541-0.107-0.893-0.634-0.787-1.176c0.108-0.541,0.636-0.892,1.176-0.787c0.926,0.183,1.851,0.329,2.774,0.453
	c1.213-0.419,7.687-2.807,13.021-7.696c7.017-6.43,13.248-9.004,21.278-8.773C406.147,287.789,408.367,274.327,405.393,249.454z
	 M293.206,286.75c-0.175,0.134-0.389,0.25-0.609,0.25c-0.01,0-0.02,0-0.03,0c-2.403,0-4.762-2.554-5.57-4.772
	c-0.641-1.757-0.342-3.381,0.819-4.418c0.677-0.604,1.373-0.922,2.068-0.922c0.938,0,1.635,0.525,2.134,1.161
	c0.734-1.181,1.807-2.167,2.957-2.167c0.644,0,1.811,0.308,2.397,2.381C298.575,282.526,293.425,286.582,293.206,286.75z"></path>
<path id="color_x5F_4" fill="#00CEC9" d="M236.323,146.684c-0.052-0.006-0.104,0.005-0.156,0.007
	c-0.979-0.435-6.827-3.282-5.974-8.849c0.102-0.668,0.445-2.176,1.444-2.176c0.04,0,0.081,0.002,0.123,0.007
	C233.546,135.884,236.488,139.822,236.323,146.684z M242.535,144.921c3.45-2.406,4.347-5.937,4.004-8.534
	c-0.218-1.653-0.986-2.986-1.868-3.243c-0.105-0.03-0.211-0.044-0.316-0.044c-0.761,0-1.498,0.732-1.897,1.209
	c-4.43,5.292-0.196,10.281-0.014,10.491C242.478,144.838,242.508,144.878,242.535,144.921z M240.843,214.264
	c2.718-4.174,5.128-6.565,7.125-7.893c-6.61-8.753-9.707-9.019-10.732-8.706c-1.287,0.392-1.955,2.323-2.031,3.952
	c-0.155,3.301-4.995,6.692-8.884,9.418c-0.941,0.659-1.83,1.282-2.479,1.79c-1.686,1.321-1.687,3.009-1.499,3.996
	C228.462,213.572,235.193,212.301,240.843,214.264z M380.413,171.275c0.077-0.12,0.154-0.237,0.232-0.355
	c-4.177-0.242-8.76-3.576-10.159-4.673c-0.702-0.011-1.377-0.056-2.018-0.128c-0.027,0.003-0.055,0.013-0.083,0.014
	c1.514,1.373,4.132,3.16,8.329,4.348C377.869,170.808,379.113,171.065,380.413,171.275z M170.017,300.722
	c0.337-1.292,0.302-2.25-0.1-2.77c-0.367-0.476-1.051-0.576-1.484-0.589c-3.483,6.587-8.419,28.486-10.063,36.059
	C161.446,328.936,166.449,314.401,170.017,300.722z M229.975,199.441c0.341-0.937,0.428-1.635,0.422-2.072
	c-0.048-0.032-0.097-0.059-0.139-0.099c-0.66,0.372-1.661,1.244-2.717,2.311c-0.023,0.39-0.276,0.748-0.668,0.886
	c-0.018,0.006-0.108,0.037-0.257,0.083c-1.573,1.699-3.06,3.586-3.477,4.588c0.796-0.473,2.468-2.251,3.754-4.131
	c0.312-0.455,0.934-0.572,1.39-0.26c0.394,0.27,0.534,0.771,0.364,1.197C229.402,200.86,229.802,199.916,229.975,199.441z
	 M219.759,211.71c0.139,0.593,0.741,0.949,0.969,0.969c0.194-0.111,0.411-0.139,0.62-0.113c0.327-0.46,0.738-0.905,1.261-1.314
	c0.691-0.542,1.601-1.179,2.564-1.854c3.156-2.212,7.925-5.553,8.034-7.874c0.078-1.655,0.639-3.662,1.915-4.869
	c-1.064,0.005-2.044,0.223-2.735,0.434c0.186,2.91-2.389,8.68-8.792,11.214C220.469,209.539,219.564,210.878,219.759,211.71z
	 M239.373,190.001c-0.616-0.044-1.184-0.048-1.708-0.018c-0.159,0.076-0.332,0.126-0.52,0.108c-0.01-0.001-0.117-0.011-0.303-0.025
	c-1.257,0.191-2.187,0.646-2.775,1.368c-0.86,1.055-0.848,2.506-0.739,3.378c1.689-0.291,3.89-0.297,5.896,0.881
	c0.063,0.037,0.105,0.092,0.156,0.14c2.803,0.874,6.226,4.043,10.365,9.57c0.927-0.392,1.725-0.549,2.378-0.58
	c-0.513-1.168-0.927-2.667-1.257-4.362C250.632,199.76,247.424,190.596,239.373,190.001z M324.835,148.202
	c0.024-0.541,0.059-1.074,0.108-1.592l-2.67,0.868c0.022,0.119,0.043,0.238,0.062,0.358
	C322.824,147.944,323.672,148.097,324.835,148.202z M214,216.253v0.79c0,0.29-0.026,0.501,0.201,0.726
	c0.886,0.881,3.148,1.196,4.561,1.225c0.583-0.4,1.176-0.779,1.775-1.144c-0.251-0.845-0.384-2.005-0.114-3.212
	c-0.32-0.047-0.647-0.14-0.973-0.323c-1.122-0.631-1.793-1.825-1.71-3.042c0.08-1.177,0.869-2.833,4.009-4.328
	c-0.039-0.025-0.078-0.051-0.115-0.079c-0.354-0.262-0.882-0.935-0.439-2.224c0.269-0.784,1.057-1.998,2.082-3.302
	c-1.282,0.244-2.913,0.504-4.929,0.726c-2.898,0.32-4.249,1.662-4.872,2.73c-0.663,1.138-0.506,2.209-0.331,2.617
	C213.888,209.147,214,213.087,214,216.253z M271.249,261.233c-6.773,4.041-12.842,7.67-16.894,13.503
	c0.696-0.303,1.365-0.536,1.981-0.749c1.28-0.445,3.028,0.053,5.447,0.74c5.954,1.692,15.92,4.524,26.104-5.979
	c9.844-10.153,14.341-39.013,16.145-55.262c-3.68,12.351-10.5,31.398-19.281,38.673
	C280.351,255.804,275.724,258.564,271.249,261.233z M267.215,345.577c2.128-9.386,2.388-17.327,2.418-19.052
	c-1.567-7.682-3.015-13.092-3.631-15.283c-1.545-0.491-3.275-1.134-5.232-1.95c-9.021-3.765-12.741-9.908-14.271-14.142
	c-0.333,3.653-0.461,8.031-0.313,13.3C246.929,334.948,262.577,344.105,267.215,345.577z M221.763,390.915
	c1.047-0.505,2.086-1.006,3.107-1.497c9.137-4.397,17.058-7.824,22.693-11.168c10.89-6.462,16.381-19.518,19.185-30.709
	c-6.192-1.755-21.824-12.76-22.562-39.034c-0.548-19.519,2.701-27.532,6.376-31.217c4.154-8.502,11.705-13.026,19.663-17.774
	c4.409-2.631,8.968-5.351,13.249-8.897c11.609-9.617,20.045-42.334,21.421-47.938c-3.435-1.144-6.752,0.569-6.788,0.588
	c-0.372,0.198-0.832,0.139-1.144-0.148c-0.311-0.287-0.409-0.738-0.243-1.128c2.427-5.703,13.936-6.339,16.021-6.408l17.482-11.964
	l-4.984-3.25c-0.396-0.258-0.558-0.758-0.387-1.199c0.17-0.441,0.631-0.703,1.092-0.627l12.554,2.028l11.632-2.227l1.372-7.404
	c0.083-0.45,0.461-0.785,0.917-0.815c0.475-0.04,0.875,0.253,1.017,0.687l2.287,6.989c22.899,6.948,35.354,22.49,35.479,22.647
	c0.088,0.103,0.577,0.686,1.337,1.794c0.983-0.486,2.87-0.848,6.364-0.083c-1-3.015-3.279-9.298-5.832-12.356
	c-9.672-4.895-12.697-14.591-13.228-16.599c-1.283-0.214-2.518-0.474-3.673-0.8c-7.292-2.064-10.293-5.807-11.062-6.943
	c-2.58-0.728-4.133-1.699-4.179-1.728c-0.273-0.176-0.415-0.464-0.438-0.764c-0.275,0.024-0.453,0.03-0.503,0.03
	c-0.005,0-0.022,0-0.026,0c-0.088,0-0.176-0.191-0.261-0.215c-8.978-2.559-16.03-3.169-21.18-3.55
	c-3.223-0.238-5.768-0.471-7.569-1.092c-4.008-1.379-5.542-6.092-5.993-7.91c-1.045-0.084-1.875-0.209-2.491-0.326
	c-0.021,0.614-0.1,1.246-0.233,1.892c0.742,0.809,1.283,1.648,1.492,2.494c0.268,1.08,0.018,2.119-0.723,3.004
	c-0.013,0.016-0.032,0.02-0.046,0.035c0.33,0.77,0.369,1.619,0.115,2.539c1.341,0.467,3.515,1.428,4.264,2.947
	c0.355,0.72,0.374,1.497,0.055,2.246c-1.348,3.157-11.464,7.194-15.572,6.857c-1.199,0.81-5.346,3.385-9.576,3.385
	c-1.798,0-3.61-0.464-5.219-1.727c-4.765-3.74-8.37-1.48-8.521-1.383c-0.193,0.126-0.412,0.161-0.626,0.143
	c-3.536,2.512-7.686,6.094-10.804,8.904c1.4-0.464,2.719-0.757,3.882-0.862c2.964-0.267,5.158,0.512,6.191,2.198
	c1.066,1.741,1.285,3.713,0.633,5.705c-1.216,3.713-5.439,7.438-11.021,9.72c-0.64,0.262-1.254,0.542-1.845,0.835l-14.02,21.946
	c0.275,0.225,0.543,0.467,0.793,0.735c1.644,1.761,2.355,4.098,2.139,6.953c2.218-0.497,4.677-0.782,7.344-0.705
	c3.67,0.109,6.381,1.471,7.436,3.736c0.846,1.817,0.497,3.982-0.934,5.79c-1.861,2.352-5.926,4.411-12.025,3.79
	c0.74,1.19,1.228,2.651,1.417,4.103c0.512-0.19,1.029-0.239,1.538-0.03c1.793,0.737,1.63,3.949,1.538,4.916
	c-0.019,0.199-0.097,0.387-0.224,0.54c-2.748,3.336-6.596,5.146-10.707,5.146c-0.669,0-1.347-0.065-2.027-0.162
	c-4.393,9.434-13.253,12.999-15.238,13.693l-2.254,3.929c0.592,1.551,4.777,13.431-3.211,19.548
	c-1.644,1.259-3.276,1.891-4.874,1.891c-0.562,0-1.119-0.083-1.671-0.24c-0.313,0.037-0.91,0.091-1.685,0.091
	c-1.012,0-2.322-0.097-3.674-0.448c-0.273,6.377-1.785,39.325-4.392,52.555c-0.552,2.8-1.31,5.694-2.112,8.758
	C214.692,368.262,211.216,381.575,221.763,390.915z M470.131,220.52c0.23,1.646,0.313,3.247,0.262,4.744
	c0.142,0.078,0.272,0.178,0.364,0.324c2.168,3.392,5.608,3.759,7.537,3.653c-1.304-1.691-3.973-4.928-6.498-7.912
	C471.207,221.067,470.653,220.795,470.131,220.52z M403.219,318.53c-0.49,4.338-0.67,8.339-0.844,12.209
	c-0.678,15.085-1.167,25.983-20.287,29.024c-2.999,0.478-6.207,0.69-9.535,0.691c-4.435,0-9.088-0.383-13.766-1.022
	c-3.235,17.279-4.496,38.557,1.518,47.509c3.951,5.882,23.722,21.786,41.164,35.818c13.971,11.238,27.167,21.854,31.366,26.567
	c5.929,6.654,6.267,16.607,1.071,29.628c3.34-1.483,32.754-15.192,36.873-39.037c4.147-24.012-4.048-32.294-17.625-46.015
	c-7.503-7.582-16.841-17.019-26.152-31.633c-17.638-27.683-22.183-53.897-23.301-67.587
	C403.53,315.944,403.366,317.221,403.219,318.53z M273.71,130.452c0.425-0.363,1.343-0.889,2.717-0.33
	c2.214,0.902,3.146,2.743,3.52,4.4c0.55-0.801,1.13-1.576,1.73-2.334c-2.077-1.028-4.523-3.256-3.515-6.753
	c0.107-0.372,0.247-0.665,0.397-0.923c-0.271-0.529-2.436-4.101-11.763-5.039c-6.956-0.7-10.987-1.214-13.027-1.5
	c1.529,3.428,6.431,11.559,18.983,14.052C272.943,131.407,273.243,130.852,273.71,130.452z M225.482,198.797
	c1.963-2.062,4.087-3.797,5.228-3.797c0.009,0,0.018,0,0.027,0c0.202,0,0.414,0.055,0.618,0.158
	c-0.163-1.208-0.191-3.317,1.151-4.975c0.043-0.054,0.096-0.098,0.142-0.149c-3.402,0.173-7.944,0.904-10.708,3.364
	c-3.397,3.024-3.316,5.505-3.045,6.593C222.276,199.583,224.441,199.08,225.482,198.797z M300.673,164.516
	c0.066-0.757-0.743-2.084-1.644-3.227c-0.706,1.777-1.85,3.947-3.637,5.843c1.485-0.355,3.317-1.026,5.107-2.306
	C300.614,164.744,300.66,164.663,300.673,164.516z M306.058,167.052c-1.435-0.071-2.985-0.296-4.089-0.868
	c-0.096,0.094-0.191,0.188-0.305,0.269c-1.502,1.074-3.021,1.774-4.391,2.231c0.77,0.184,1.456,0.485,1.979,0.952
	c1.587,1.417,6.941,0.486,8.545-0.322c-0.018-0.01-0.035-0.021-0.052-0.03C307.173,168.952,306.218,168.378,306.058,167.052z
	 M278.106,121.031c-0.005,0.026-0.022,0.045-0.03,0.07c1.124,0.851,1.75,1.651,2.074,2.174c0.184-0.039,0.348-0.054,0.47-0.054
	c1.261,0,2.632,1.049,3.494,2.672c0.52,0.979,0.776,2.007,0.797,3.011c1.199-0.706,2.792-1.31,4.75-1.31
	c1.552,0,3.15,0.402,4.756,1.163c0.871-0.223,3.016-0.602,5.038,0.382c0.991,0.483,1.804,1.218,2.435,2.19
	c1.501-3.312,3.145-6.65,4.828-9.613c0.112-9.873-8.45-13.596-14.957-15.587c-5.965-1.826-5.444-5.206-5.133-7.248
	c0.225-1.477,0.135-1.483-0.295-1.606c-2.07-0.592-3.8-0.138-5.287,1.369c-2.949,2.986-3.928,9.379-3.124,12.065
	C279.276,115.231,278.155,120.796,278.106,121.031z"></path>
<path id="color_x5F_3" fill="#E84393" d="M294.622,158.144c0.004,0.016,0.01,0.035,0.011,0.04
	c0.017,0.056,0.053,0.097,0.078,0.147c-0.415,0.526-0.832,1.08-1.262,1.652c-1.887,2.515-3.839,5.115-6.462,6.288
	c-1.252,0.56-2.997,1.775-4.964,3.35c0.322-1.137,0.704-2.5,1.118-4.005C284.696,165.385,289.854,164.174,294.622,158.144z
	 M295.375,148.018c-0.175-0.136-0.306-0.331-0.36-0.563c-0.206-0.893-0.615-1.457-1.25-1.723c-1.73-0.728-4.799,0.624-6.264,1.434
	c-0.489,3.682-2.226,10.564-3.774,16.297c2.084-0.518,6.559-2.28,10.534-8.208c0.012-0.018,0.031-0.027,0.044-0.043
	c-0.013-1.536,0.158-3.642,0.814-6.284C295.182,148.682,295.271,148.366,295.375,148.018z M273.327,154.729
	c1.358-1.437,3.201-2.722,5.631-3.128c1.783-0.295,2.667,0.549,3.036,1.081c1.017,1.466,0.675,4.144-0.871,6.823
	c-1.76,3.05-5.203,6.168-9.739,6.168c-0.115,0-0.233-0.01-0.35-0.015c-0.986,6.274-1.351,11.854-1.48,15.593
	c2.863-2.999,6.429-6.458,9.732-9.337c0.832-2.873,5.618-19.559,6.281-25.374c-0.811-0.905-2.605-3.387-2.552-7.553
	c0.007-0.552,0.426-1.006,1.013-0.987c0.552,0.007,0.994,0.46,0.987,1.013c-0.037,2.886,0.945,4.73,1.626,5.669
	c0.318-0.457,0.704-1.179,0.998-2.261c0.145-0.533,0.693-0.848,1.227-0.703c0.533,0.145,0.848,0.694,0.703,1.227
	c-0.132,0.486-0.285,0.902-0.443,1.287c0.388-0.141,0.794-0.269,1.213-0.379c0.056-0.186,0.149-0.363,0.312-0.495
	c1.459-1.177,6.225-4.912,8.363-5.314c0.565-1.397,1.175-2.853,1.82-4.337c-1.368-3.788-4.663-3.335-5.808-3.046
	c-0.63,1.084-2.611,3.841-6.464,3.841c-1.561,0-3.241-0.475-5.004-1.402c-2.49,3.069-4.546,6.572-6.234,10.295
	c1.433-0.674,3.191-1.034,4.848-0.083c0.219,0.126,0.382,0.33,0.457,0.571c0.055,0.176,0.502,1.779-0.579,3.763
	c-1.264,2.319-4.043,4.116-8.237,5.354C273.646,153.576,273.481,154.152,273.327,154.729z M296.259,145.319
	c0.472-1.357,1.061-2.959,1.745-4.724c-1.171,0.664-2.822,1.802-4.437,3.024c0.334,0.058,0.661,0.138,0.971,0.268
	C295.087,144.118,295.741,144.544,296.259,145.319z M236.899,268.201c-0.136,0.913-0.046,2.338,1.426,3.375l1.443-2.516
	L236.899,268.201z M464.174,214.335c-0.007,0.917-0.193,1.648-0.47,2.224c-0.687,3.404-1.816,12.357,0.792,15.043
	c0.884,0.91,1.391,0.639,1.583,0.537c1.671-0.896,3.233-6.09,1.755-13.174L464.174,214.335z M471.523,213.818
	c-0.237-0.059-0.424-0.206-0.557-0.389c-2.148-0.282-4.173-0.678-5.834-1.107l4.33,5.478c4.185,2.884,14.543,5.761,19.219,4.682
	c0.605-0.14,1.387-0.414,1.67-0.933c0.022-0.041,0.038-0.071-0.012-0.185C489.358,219.13,478.745,215.606,471.523,213.818z
	 M312.811,486.641c17.848,18.605,26.403,36.522,28.763,41.987c18.82-26.355,24.258-52.463,24.854-72.416
	c-33.501-19.191-76.015-2.587-82.235,0.029c7.702,9.088,15.621,17.14,22.242,23.868C308.728,482.44,310.874,484.621,312.811,486.641
	z"></path>
<path id="color_x5F_2" fill="#FBC02D" d="M268.575,150.457c0.319-0.915,0.413-1.947,0.303-3.028
	c0.515,1.575,1.5,3.054,3.194,4.159c-0.262,0.864-0.506,1.729-0.739,2.593C270.637,152.596,269.665,151.342,268.575,150.457z
	 M158.754,315.98c0.686-0.222,1.221-0.499,1.54-0.824c0.11-0.112,0.241-0.185,0.379-0.234c1.857-7.198,3.966-14.373,5.788-18.061
	c-3.747-7.766-11.09-19.025-15.527-17.388c-4.38,1.611-3.842,3.076-2.867,5.736c0.771,2.102,1.73,4.718-0.343,7.448
	c-0.821,1.081-1.741,2.159-2.631,3.201c-3.636,4.257-7.069,8.278-5.681,13.765c0.651,2.572,3.681,4.766,8.311,6.017
	c2.29,0.618,4.556,0.89,6.54,0.901C156.056,316.25,157.623,316.078,158.754,315.98z M137.148,330.763
	c0.17,2.606,1.178,4.045,3.082,4.398c5.61,1.036,16.584-6.886,17.765-9.213c0.567-2.465,1.22-5.22,1.924-8.048
	c-0.235,0.017-0.521,0.039-0.849,0.067c-1.303,0.379-2.865,0.562-4.532,0.568c-5.049,0.823-11.903,2.606-15.325,6.404
	C137.679,326.642,137.003,328.547,137.148,330.763z M230.43,292.488c1.517,0.451,3.096,0.021,4.83-1.306
	c5.937-4.546,3.806-13.364,2.863-16.351c-0.893,3.811-3.796,10.545-13.191,11.081c-0.044,0.002-0.087,0.001-0.13,0.004
	C225.307,287.162,227.288,291.558,230.43,292.488z M227.881,263.085c-0.286,0.574-0.658,1.167-1.17,1.751
	c-2.196,2.501-5.899,3.867-11.008,4.059c-0.866,0.033-1.681,0.084-2.453,0.15c0.043,1.034,0.5,8.669,4.716,12.576
	c1.812,1.68,4.128,2.452,6.85,2.295c10.057-0.573,11.47-9.141,11.667-11.261c-1.768-1.671-1.819-3.897-1.438-5.382
	C233.5,265.98,230.356,263.676,227.881,263.085z M222.784,286.247c-0.046-0.131-0.063-0.265-0.055-0.396
	c-2.358-0.259-4.415-1.18-6.127-2.769c-2.265-2.102-3.57-5.024-4.325-7.667c-2.02,3.177,0.172,5.382,3.794,8.557
	c1.74,1.525,3.539,3.102,4.539,4.925c1.336,2.437,3.922,3.263,6.023,3.512C224.139,289.985,222.855,286.449,222.784,286.247z
	 M488.842,207.35c3.188-6.196-3.798-10.742-10.597-14.517c-0.753-0.418-1.435-0.797-2.003-1.137
	c-2.103-1.258-3.225-3.855-4.31-6.367c-1.41-3.266-2.742-6.351-5.953-6.351c-0.371,0-0.77,0.039-1.186,0.116
	c-5.847,1.084-7.905,15.462-8.236,21.262c1.155,2.263,4.122,7.643,5.818,8.89c0.055,0.04,0.133,0.085,0.217,0.129
	c0.022,0.009,0.039,0.024,0.061,0.034c1.653,0.839,7.982,2.439,14.295,2.439C481.318,211.848,486.93,211.067,488.842,207.35z
	 M461.19,210.857c-2.316-1.704-5.702-8.193-6.433-9.628c-2.57-1.956-9.357-6.129-12.508-3.843c-0.591,0.429-0.583,0.737-0.58,0.853
	c0.041,1.554,4.061,4.165,6.463,5.726c1.855,1.206,3.321,2.158,3.959,2.979c0.689,0.888,1.266,2.239,1.876,3.668
	c1.066,2.499,2.275,5.331,4.15,5.982c1.426,0.497,2.742,0.35,3.434-0.385c0.864-0.918,0.807-2.809-0.133-5.21
	C461.34,210.952,461.253,210.903,461.19,210.857z M260.245,176.145c0.07,0.131,0.144,0.247,0.212,0.389
	c1.758,3.674,2.124,10.247,1.36,16.436c1.716-2.496,3.724-4.615,5.834-6.369c-0.083-0.122-0.145-0.26-0.151-0.436
	c-0.022-0.706-0.228-8.98,1.288-19.479c-0.546-0.223-1.873-0.826-3.338-1.931C265.261,167.864,264.337,173.528,260.245,176.145z
	 M268.459,145.419c-0.215-2.137,0.217-4.226,0.748-5.595c0.188-0.481,0.71-0.74,1.208-0.599c2.687,0.77,3.988,2.62,4.537,4.473
	c0.421-0.973,0.86-1.937,1.329-2.884c-1.655-0.783-2.921-2.472-3.495-4.714c-1.025-0.296-3.494-0.826-5.477,0.205
	c-1.182,0.614-2.033,1.722-2.54,3.292C266.499,141.157,267.806,143.281,268.459,145.419z M154.631,433.024
	c-5.458,15.639-10.824,34.855-3.815,44.73c6.835,9.63,57.133,39.612,135.357,53.26c42.746,7.46,78.194,1.307,100.401-5.168
	c25.087-7.313,42.9-18.183,45.628-24.466c0.425-0.979,0.845-1.93,1.252-2.854c4.938-11.19,7.918-17.945,0.799-27.947
	c-4.494-6.314-27.858-24.509-46.632-39.13c-12.365-9.63-21.323-16.643-25.987-20.763c2.185,6.251,5.773,18.637,6.657,34.528
	c0.176,3.162,0.243,6.567,0.16,10.173c0.052,0.177,0.041,0.361-0.01,0.544c-0.563,20.673-6.233,47.934-26.301,75.325
	c-0.189,0.26-0.49,0.409-0.807,0.409c-0.046,0-0.091-0.003-0.138-0.01c-0.363-0.05-0.671-0.297-0.8-0.641
	c-0.077-0.209-8.013-21.085-29.027-42.991c-1.932-2.015-4.071-4.188-6.358-6.514c-22.537-22.904-59.942-60.927-53.709-103.709
	c-0.654,0.5-1.322,0.983-2.02,1.42c-11.567,7.25-33.504,15.892-49.196,20.682C184.332,404.713,159.816,418.167,154.631,433.024z"></path>
<path id="color_x5F_1" fill="#0984E3" d="M492.171,220.561c-1.109-2.528-7.82-5.07-13.306-6.77
	c6.003-0.327,10.052-2.217,11.756-5.527c4.341-8.438-5.902-14.125-11.404-17.18c-0.733-0.407-1.397-0.775-1.947-1.105
	c-1.551-0.927-2.497-3.121-3.5-5.443c-1.53-3.543-3.264-7.558-7.79-7.558c-0.493,0-1.015,0.05-1.551,0.149
	c-6.637,1.231-8.857,13.316-9.571,19.695c-2.224-4.478-6.083-14.977,1.149-23.557c0.355-0.422,0.302-1.053-0.12-1.409
	c-0.423-0.357-1.054-0.303-1.409,0.12c-7.358,8.729-4.362,19.155-1.964,24.536c-2.794-2.53-10.925-11.006-6.721-20.709
	c0.219-0.507-0.014-1.096-0.521-1.315c-0.511-0.221-1.096,0.014-1.315,0.52c-3.783,8.732,1.193,16.465,4.894,20.623
	c-2.71-1.013-5.639-1.418-7.776,0.136c-1.191,0.867-1.421,1.85-1.403,2.523c0.068,2.606,3.949,5.127,7.373,7.351
	c1.493,0.97,3.037,1.974,3.468,2.528c0.531,0.684,1.059,1.92,1.616,3.227c1.229,2.88,2.623,6.144,5.334,7.087
	c0.766,0.266,1.523,0.396,2.239,0.396c0.578,0,1.12-0.101,1.623-0.267c-0.581,4.021-1.166,11.395,1.738,14.383
	c0.808,0.832,1.708,1.26,2.596,1.26c0.463,0,0.924-0.117,1.365-0.353c1.551-0.832,2.621-3.001,3.102-5.857
	c2.394,2.645,5.505,3.191,7.649,3.191c1.466,0,2.48-0.253,2.507-0.261c0.324-0.095,0.59-0.36,0.688-0.684
	c0.165-0.552,0.239-0.851-5.333-7.507c3.562,1.152,7.495,1.93,10.634,1.929c1.06,0,2.029-0.088,2.862-0.281
	c1.46-0.337,2.461-0.983,2.974-1.921C492.44,221.899,492.463,221.226,492.171,220.561z M461.552,216.209
	c-0.691,0.735-2.008,0.882-3.434,0.385c-1.875-0.651-3.084-3.483-4.15-5.982c-0.61-1.429-1.186-2.78-1.876-3.668
	c-0.638-0.821-2.104-1.773-3.959-2.979c-2.401-1.561-6.422-4.172-6.463-5.726c-0.003-0.116-0.011-0.423,0.58-0.853
	c3.15-2.287,9.938,1.886,12.508,3.843c0.73,1.435,4.116,7.925,6.433,9.628c0.062,0.046,0.149,0.094,0.228,0.142
	C462.358,213.4,462.416,215.291,461.552,216.209z M462.593,209.376c-0.084-0.045-0.162-0.089-0.217-0.129
	c-1.696-1.247-4.663-6.627-5.818-8.89c0.331-5.799,2.39-20.178,8.236-21.262c0.416-0.077,0.815-0.116,1.186-0.116
	c3.211,0,4.543,3.085,5.953,6.351c1.085,2.511,2.206,5.108,4.31,6.367c0.567,0.339,1.25,0.718,2.003,1.137
	c6.799,3.775,13.785,8.321,10.597,14.517c-1.912,3.718-7.523,4.498-11.894,4.498c-6.313,0-12.642-1.599-14.295-2.439
	C462.632,209.399,462.615,209.384,462.593,209.376z M466.079,232.139c-0.192,0.102-0.699,0.372-1.583-0.537
	c-2.608-2.686-1.479-11.639-0.792-15.043c0.276-0.576,0.463-1.307,0.47-2.224l3.66,4.631
	C469.312,226.049,467.75,231.243,466.079,232.139z M478.294,229.241c-1.93,0.105-5.369-0.262-7.537-3.653
	c-0.093-0.146-0.223-0.247-0.364-0.324c0.052-1.497-0.031-3.097-0.262-4.744c0.522,0.276,1.076,0.547,1.665,0.81
	C474.321,224.312,476.99,227.55,478.294,229.241z M490.352,221.55c-0.283,0.518-1.065,0.793-1.67,0.933
	c-4.676,1.08-15.034-1.798-19.219-4.682l-4.33-5.478c1.661,0.429,3.686,0.824,5.834,1.107c0.133,0.183,0.319,0.33,0.557,0.389
	c7.222,1.788,17.835,5.311,18.816,7.547C490.39,221.48,490.374,221.509,490.352,221.55z M294.975,275.882
	c-1.15,0-2.223,0.986-2.957,2.167c-0.499-0.636-1.197-1.161-2.134-1.161c-0.695,0-1.391,0.318-2.068,0.922
	c-1.161,1.037-1.459,2.662-0.819,4.418c0.808,2.218,3.168,4.772,5.57,4.772c0.01,0,0.02,0,0.03,0c0.22,0,0.434-0.116,0.609-0.25
	c0.22-0.169,5.37-4.224,4.165-8.487C296.785,276.19,295.618,275.882,294.975,275.882z M292.293,284.872
	c-1.263-0.272-2.845-1.798-3.418-3.372c-0.248-0.68-0.402-1.618,0.272-2.22c0.287-0.256,0.555-0.403,0.736-0.403
	c0.458,0,1.037,1.056,1.25,1.811c0.124,0.446,0.53,0.751,0.999,0.733c0.462-0.016,0.854-0.347,0.945-0.801
	c0.293-1.444,1.467-2.741,1.897-2.742c0.002,0.001,0.246,0.127,0.472,0.928C296.086,281.072,293.62,283.746,292.293,284.872z
	 M135.152,330.894c0.293,4.484,2.725,5.865,4.713,6.233c0.435,0.08,0.892,0.118,1.369,0.118c4.973-0.001,12.011-4.133,15.896-7.481
	c-0.735,3.301-1.207,5.562-1.276,5.897c-0.062,0.301,0.017,0.659,0.216,0.896c0.19,0.225,0.47,0.443,0.763,0.443
	c0.013,0,0.026,0,0.039,0c5.434,0,12.916-27.386,15.08-35.683c0.506-1.94,0.354-3.542-0.453-4.586
	c-0.221-0.286-0.503-0.513-0.81-0.712c0.922-3.478,4.362-19.11-6.804-24c-0.507-0.222-1.095,0.009-1.317,0.515
	c-0.222,0.506,0.009,1.096,0.515,1.317c7.404,3.242,7.222,12.57,6.39,18.064c-0.685-3.985-2.684-9.731-8.504-11.685
	c-0.523-0.176-1.091,0.113-1.266,0.636c-0.176,0.523,0.106,1.103,0.629,1.279c6.385,2.144,7.333,10.246,7.471,12.916
	c-2.506-4.98-10.717-19.979-17.559-17.467c-6.255,2.3-5.035,5.628-4.054,8.302c0.727,1.98,1.354,3.69-0.058,5.549
	c-0.786,1.035-1.647,2.044-2.56,3.112c-3.628,4.249-7.741,9.065-6.098,15.554c0.834,3.294,4.379,6.012,9.727,7.457
	c0.372,0.101,0.762,0.183,1.148,0.269c-4.009,1.145-8.079,2.942-10.62,5.761C135.84,325.694,134.973,328.148,135.152,330.894z
	 M168.432,297.363c0.434,0.013,1.117,0.113,1.484,0.589c0.402,0.521,0.437,1.478,0.1,2.77c-3.568,13.68-8.571,28.215-11.648,32.7
	C160.013,325.849,164.949,303.95,168.432,297.363z M147.723,315.639c-4.63-1.251-7.659-3.444-8.311-6.017
	c-1.389-5.486,2.045-9.508,5.681-13.765c0.89-1.043,1.81-2.121,2.631-3.201c2.073-2.73,1.114-5.346,0.343-7.448
	c-0.976-2.66-1.513-4.125,2.867-5.736c4.437-1.637,11.78,9.622,15.527,17.388c-1.821,3.688-3.931,10.863-5.788,18.061
	c-0.138,0.05-0.27,0.122-0.379,0.234c-0.319,0.325-0.854,0.602-1.54,0.824c-1.131,0.098-2.698,0.27-4.491,0.56
	C152.278,316.528,150.013,316.257,147.723,315.639z M154.538,318.535c1.667-0.006,3.229-0.19,4.532-0.568
	c0.328-0.028,0.613-0.051,0.849-0.067c-0.704,2.828-1.357,5.583-1.924,8.048c-1.181,2.327-12.155,10.249-17.765,9.213
	c-1.903-0.353-2.911-1.791-3.082-4.398c-0.145-2.216,0.531-4.121,2.065-5.823C142.635,321.142,149.489,319.358,154.538,318.535z
	 M476.551,275.816l-2.552,2.177l-1.166-5.376c-0.176-0.809-0.967-1.325-1.784-1.148c-0.81,0.175-1.323,0.974-1.147,1.784
	l1.508,6.949l-16.694,14.24l4.438-12.698c0.455-1.303-0.232-2.729-1.535-3.184c-1.291-0.452-2.692,0.218-3.166,1.492l-1.923-10.626
	c-0.147-0.816-0.925-1.355-1.743-1.209c-0.814,0.147-1.357,0.928-1.208,1.743l2.865,15.828l-12.531,35.859l-5.954-17.572
	c-0.443-1.308-1.86-2.008-3.17-1.566c-1.309,0.443-2.009,1.862-1.566,3.17l1.161,3.429l-5.126-1.434
	c-0.802-0.227-1.627,0.243-1.849,1.04c-0.224,0.798,0.242,1.626,1.04,1.849l7.101,1.985l5.683,16.77l-14.538,41.6
	c-18.85-35.315-17.323-65.65-17.304-65.982c0.01-0.158-0.026-0.306-0.085-0.443c0.098-0.57,0.195-1.148,0.293-1.713
	c2.04-11.846,3.985-23.158,2.929-40.944c2.837,1.375,5.501,1.905,7.919,1.905c7.829-0.001,13.064-5.522,13.133-5.597
	c0.185-0.199,0.28-0.465,0.265-0.736c-0.945-16.656-11.551-24.555-15.784-27.061c4.831-2.974,7.186-8.395,7.223-8.481
	c0.16-0.379,0.071-0.818-0.223-1.105c-3.927-3.824-7.825-5.593-11.254-6.267c-0.036-0.018-0.063-0.046-0.102-0.06
	c-1.146-0.389-1.705-2.021-2.353-3.911c-0.975-2.843-2.187-6.347-6.146-7.742c-0.526-1.705-2.375-7.39-4.786-11.584
	c2.696,0.899,5.8,1.446,9.387,1.446h0.001c0.672,0,1.358-0.019,2.064-0.058c23.351-1.281,26.723-16.133,26.855-16.765
	c0.076-0.364-0.056-0.74-0.342-0.976c-0.087-0.071-8.725-7.196-13.392-10.98c-2.118-1.718-7.032-4.215-12.9-5.232
	c8.254-6.162,6.293-18.479,6.27-18.615c-0.068-0.404-0.377-0.726-0.777-0.811c-13.967-2.981-24.065-1.898-30.206,3.189
	c4.387-8.373,4.241-11.139,3.494-12.445c-0.315-0.553-0.97-1.211-2.288-1.211c-0.29,0-0.606,0.033-0.94,0.098
	c-1.168,0.228-3.169-0.534-5.788-1.516c2.523-3.48,1.85-5.816,0.793-7.18c-3.53-4.56-16.697-4.292-20.575-2.577
	c-1.549,0.684-2.363,1.624-2.422,2.795c-0.054,1.081,0.602,2.08,1.391,2.884c-3.437,0.099-7.898,0.518-12.409,1.75
	c7.182-21.154-7.329-33.368-7.482-33.492c-0.246-0.201-0.576-0.275-0.878-0.196c-0.308,0.078-0.56,0.296-0.681,0.589
	c-1.989,4.834-7.97,7.673-14.895,10.961c-1.681,0.798-3.419,1.623-5.147,2.503c-5.347,2.721-7.468,6.544-8.302,9.377
	c-3.397-7.005-11.684-9.456-14.899-10.44c-4.314-1.321-4.036-3.144-3.742-5.074c0.195-1.281,0.49-3.217-1.722-3.849
	c-2.76-0.788-5.27-0.14-7.26,1.876c-3.607,3.653-4.566,10.868-3.617,14.038c0.954,3.186,0.497,7.125,0.256,8.67
	c-2.022-1.064-4.978-2.041-9.267-2.472c-10.766-1.083-14.564-1.733-14.602-1.739c-0.342-0.059-0.687,0.061-0.917,0.318
	c-0.23,0.257-0.311,0.615-0.215,0.946c0.161,0.553,3.987,13.073,20.011,16.759c-1.438-0.159-3.235-0.09-4.874,0.755
	c-1.502,0.775-2.604,2.066-3.303,3.83c-3.148-1.895-6.076-2.515-8.468-1.79c-2.064,0.626-3.699,2.206-4.86,4.698
	c-1.858,3.985-2.266,4.094-3.16,4.333c-0.467,0.126-1.106,0.297-1.958,0.755c-0.72,0.388-1.201,1.018-1.39,1.821
	c-0.519,2.213,1.373,5.366,2.105,6.478c-0.083,0.351-0.13,0.691-0.154,1.011c-0.824-1.146-2.221-3.756-2.479-8.527
	c0.077-0.024,0.153-0.058,0.226-0.101c4.78-2.899,6.008-7.534,5.563-10.905c-0.334-2.53-1.595-4.408-3.293-4.901
	c-0.84-0.245-2.516-0.335-4.304,1.801c-4.845,5.788-1.254,11.409-0.233,12.779c0.026,3.522,0.614,6.124,1.323,8.005l-3.871-5.202
	c0.052-0.108,0.088-0.226,0.098-0.353c0.737-8.937-3.156-14.201-6.249-14.566c-1.521-0.175-3.3,0.741-3.777,3.852
	c-0.922,6.008,4.386,9.86,7.322,11.058c0.04,0.017,0.082,0.012,0.123,0.022l5.131,6.896c-7.394-5.419-20.043-4.491-21.648-4.348
	c-3.901,0.349-5.431-2.188-5.49-2.289c-0.239-0.423-0.748-0.613-1.207-0.451c-0.458,0.164-0.732,0.633-0.649,1.112
	c2.006,11.585,5.824,19.151,11.348,22.489c2.344,1.416,4.529,1.763,6.106,1.763c0.287,0,0.548-0.014,0.792-0.032
	c-0.662,1.359-0.708,2.509-0.142,3.473c0.181,0.308,0.444,0.565,0.745,0.799c-0.267,1.074-0.58,3.107,0.307,4.738
	c-0.926,0.778-1.881,1.247-2.102,1.06c-0.213-0.175-0.485-0.253-0.762-0.22c-0.273,0.035-0.52,0.181-0.682,0.403
	c-0.628,0.862-1.207,2.743,0.078,4.676c-2.496,0.562-4.997,1.541-6.877,3.214c-3.972,3.536-4.06,6.698-3.695,8.386
	c-3.049,0.686-4.485,2.435-5.105,3.499c-0.639,1.096-0.889,2.332-0.766,3.389c-3.744-4.501-9.599-5.816-12.683-6.502l-0.368-0.082
	c-3.444-0.774-6.019-1.617-7.796-5.433c-1.434-3.081-3.776-3.642-4.943-3.485c-0.97,0.13-1.409,0.722-1.497,1.232
	c-0.056,0.327-0.055,1.153,1.115,1.747c0.799,0.658,2.103,5.959,3.253,10.637c1.424,5.79,3.19,12.937,5.495,18.696
	c-1.842,0.085-5.345,0.811-9.038,4.58c-4.74,4.839-8.986,6.312-9.759,6.077c-0.339-0.2-0.764-0.18-1.087,0.047
	c-0.321,0.229-0.478,0.624-0.4,1.011c0.063,0.316,1.635,7.799,9.269,12.35c3.747,2.233,8.242,3.351,13.447,3.351
	c4.607,0,9.771-0.876,15.461-2.627c0.059-0.018,0.102-0.057,0.155-0.084c1.345,0.926,2.925,1.726,4.697,2.367
	c-0.855,0.432-1.83,0.918-2.549,1.262c-0.346,0.166-0.567,0.514-0.569,0.897c-0.001,0.136,0.005,3.361,1.854,5.123
	c0.299,0.285,0.626,0.517,0.98,0.694c-0.192,0.384-0.317,0.858-0.352,1.415c-0.072-0.008-0.146-0.016-0.216-0.024
	c-1.282-0.148-2.394-0.277-3.328-0.217c-2.333,0.145-2.96,1.014-3.536,2.135c-0.304,0.591-0.59,1.149-1.517,1.779
	c-1.402,0.954-2.905,0.847-4.359,0.74c-0.993-0.072-1.931-0.141-2.801,0.13c-1.327,0.411-2.432,1.582-2.815,2.983
	c-0.356,1.305-0.039,2.629,0.873,3.633c0.504,0.555,1.053,0.764,1.659,0.764c0.791,0,1.678-0.356,2.685-0.76
	c1.76-0.706,4.442-1.777,8.883-2.355c0.025,0.583,0.123,1.984,0.456,3.755c-0.133,0.061-0.257,0.144-0.357,0.264
	c-4.424,5.344-0.088,9.144,3.396,12.197c1.609,1.411,3.274,2.87,4.103,4.383c0.935,1.705,2.292,2.795,3.744,3.491
	c-0.022,0.529-0.065,1.535-0.128,2.91c-0.13,0.155-0.228,0.34-0.243,0.559c-0.033,0.452-3.376,45.245-8.964,52.883
	c-4.139,5.658-10.582,21.309-7.478,33.551c0.981,3.871,4.025,7.753,6.963,10.3c-4.642,1.68-9.159,3.192-13.248,4.44
	c-0.491,0.149-0.991,0.309-1.498,0.475c-2.371-0.699-6.865-2.231-12.095-5.036c1.546-1.16,3.494-2.769,5.571-4.819
	c1.162,0.613,2.699,1.1,4.429,1.1c2.532,0,5.468-1.04,8.211-4.244c0.538-0.63,0.465-1.576-0.164-2.115
	c-0.629-0.538-1.576-0.466-2.115,0.164c-3.222,3.766-6.362,3.462-8.16,2.793c6.829-7.561,14.005-19.727,12.573-36.726
	c-0.116-1.376-1.327-2.395-2.701-2.281c-1.376,0.116-2.397,1.325-2.281,2.701c0.376,4.468,0.102,8.55-0.618,12.266
	c-1.331-0.33-3.353-1.108-4.995-2.938c-2.21-2.462-3.178-6.122-2.875-10.909c0.052-0.827-0.576-1.508-1.402-1.561
	c-0.821-0.051-1.539,0.639-1.592,1.465c-0.356,5.649,0.881,10.203,3.678,13.289c2.161,2.383,4.758,3.117,6.511,3.554
	c-4.006,14.866-15.127,23.135-18.762,25.495c-10.802-6.984-22.868-19.304-25.906-40.272c-0.198-1.366-1.468-2.315-2.832-2.116
	c-1.366,0.198-2.314,1.467-2.116,2.833c1.356,9.36,4.376,17.133,8.277,23.571c-5.971,0.092-17.566-1.378-26.053-12.655
	c1.722-2.065,4.082-6.624,0.998-14.288c-0.309-0.768-1.184-1.143-1.952-0.832c-0.769,0.31-1.141,1.183-0.832,1.951
	c2.195,5.456,1.098,8.81-0.014,10.552c-1.295-2.068-2.497-4.396-3.557-7.049c-0.512-1.282-1.966-1.908-3.249-1.394
	c-1.282,0.513-1.906,1.967-1.394,3.249c3.099,7.752,7.291,13.176,11.814,16.957c-1.545,1.552-5.986,5.204-10.75,1.629
	c-0.661-0.496-1.603-0.362-2.1,0.3c-0.497,0.663-0.362,1.603,0.3,2.101c2.039,1.529,4.081,2.123,5.999,2.123
	c3.791,0,7.097-2.317,8.953-4.314c7.986,5.584,16.56,6.607,21.759,6.607c1.365,0,2.485-0.07,3.313-0.147
	c6.936,9.259,15.626,15.228,22.829,18.938c-0.829,1.158-3.735,4.314-10.418,4.133c0.643-3.627-0.247-8.921-6.874-11.708
	c-0.765-0.322-1.644,0.037-1.964,0.801c-0.321,0.764,0.038,1.644,0.801,1.965c5.549,2.334,5.477,6.538,5.028,8.659
	c-0.821-0.13-1.674-0.29-2.587-0.518c-0.805-0.208-1.618,0.289-1.818,1.093c-0.2,0.804,0.289,1.617,1.093,1.817
	c2.61,0.65,4.904,0.919,6.914,0.919c8.246,0,11.712-4.521,12.544-5.83c1.596,0.742,2.461,1.152,3.264,1.489
	c-15.281,6.446-33.442,18.24-37.944,31.14c-5.616,16.092-11.096,35.926-3.558,46.547c7.206,10.154,56.76,40.135,136.643,54.072
	c14.052,2.451,27.315,3.445,39.597,3.444c25.413,0,46.6-4.258,61.708-8.663c26.617-7.76,44.031-18.976,46.902-25.589
	c0.251-0.578,0.494-1.126,0.739-1.685c-0.03,0.103-0.057,0.207-0.088,0.309c3.644-1.583,33.714-15.357,38.064-40.543
	c4.323-25.026-4.627-34.071-18.175-47.762c-7.436-7.515-16.69-16.866-25.886-31.3c-0.927-1.455-1.807-2.903-2.661-4.349
	c0.298-0.755,0.487-1.71,0.685-2.275l5.828-16.679l6.982-7.919l9.589-2.494c0.085,0.065,0.177,0.125,0.277,0.173l5.264,2.496
	c0.207,0.099,0.426,0.145,0.642,0.145c0.562,0,1.1-0.316,1.357-0.857c0.354-0.748,0.036-1.643-0.713-1.998l-2.36-1.119l4.092-1.064
	c0.802-0.209,1.282-1.028,1.074-1.83c-0.209-0.802-1.026-1.278-1.83-1.074l-13.844,3.601l17.595-19.959
	c0.238-0.27,0.415-0.589,0.52-0.934l1.522-5.063l13.345-2.669c0.812-0.162,1.34-0.952,1.177-1.765
	c-0.162-0.812-0.956-1.343-1.765-1.177l-11.779,2.355l2.45-8.15c0.397-1.322-0.353-2.717-1.675-3.114
	c-1.326-0.399-2.718,0.353-3.114,1.675l-4.793,15.945l-19.633,22.271l14.525-41.562l28.352-24.186
	c1.051-0.896,1.176-2.474,0.28-3.524C479.178,275.046,477.601,274.921,476.551,275.816z M236.166,146.691
	c-0.979-0.435-6.827-3.282-5.974-8.849c0.102-0.668,0.445-2.176,1.444-2.176c0.04,0,0.081,0.002,0.123,0.007
	c1.787,0.21,4.729,4.148,4.564,11.01C236.271,146.677,236.219,146.689,236.166,146.691z M403.727,301.853
	c-8.03-0.23-14.262,2.344-21.278,8.773c-5.335,4.89-11.809,7.277-13.021,7.696c-0.924-0.124-1.849-0.27-2.774-0.453
	c-0.54-0.104-1.067,0.246-1.176,0.787c-0.106,0.542,0.246,1.068,0.787,1.176c1.071,0.212,2.139,0.198,3.203,0.336
	c0.016,0,0.029-0.168,0.045-0.168c0.002,0,0.005,0,0.007,0c1.249,1,2.49,0.447,3.72,0.518c0.957,1.854,5.218,8.403,18.074,8.403
	c2.667,0,5.73-0.258,9.185-0.913c-0.043,0.886-0.083,1.78-0.121,2.62c-0.683,15.188-1.094,24.365-18.604,27.15
	c-22.807,3.625-57.852-8.35-67.364-12.887c-10.102-4.818-30.415-21.614-30.295-27.374c0.011-0.552-0.427-1.007-0.979-1.019
	c-0.543-0.004-1.009,0.427-1.021,0.979c-0.152,7.277,21.522,24.496,31.434,29.224c6.519,3.109,24.865,9.656,43.258,12.446
	c-1.483,7.969-4.568,27.94-1.294,41.297l0.008-0.017c0.534,2.173,1.348,4.593,2.581,6.638c0.26,0.581,6.944,15.821,8.192,38.261
	c0.15,2.7,0.221,5.582,0.184,8.614c-35.396-19.496-79.84-0.948-83.629,0.7c-18.151-21.789-34.582-49.302-29.199-78.812
	c0.489-0.453,0.958-0.916,1.415-1.384c2.617-2.579,4.823-5.52,6.679-8.655c0.574-0.935,0.982-1.725,0.997-1.763
	c2.904-5.378,4.87-11.197,6.186-16.632c0.116-0.153,0.204-0.329,0.216-0.536c0.005-0.08-0.018-0.152-0.032-0.228
	c1.053-4.522,1.669-8.734,2.027-12.157c3.517,20.192,6.507,50.271,1.014,79.714c-0.102,0.543,0.256,1.065,0.799,1.167
	c0.062,0.011,0.124,0.017,0.185,0.017c0.472,0,1.073-0.336,1.163-0.816c6.301-33.769,1.703-68.357-2.297-88.193
	c0-0.088,0-0.169,0-0.21c0-0.186-0.246-0.37-0.336-0.542c-1.308-6.355-2.611-11.11-3.322-13.733
	c1.662,0.411,3.032,0.615,4.229,0.615c4.54,0,6.136-2.751,7.978-6.694c0.234-0.5,0.007-1.095-0.494-1.329
	c-0.499-0.233-1.102-0.018-1.335,0.482c-2.002,4.284-3.273,6.98-11.09,4.708c-0.013-0.044-0.024-0.075-0.027-0.085
	c-0.161-0.528-0.721-0.828-1.249-0.664c-0.15,0.046-0.274,0.129-0.382,0.229c-1.311-0.443-2.779-1.004-4.433-1.693
	c-13.307-5.552-14.082-16.577-14.108-17.043c-0.012-0.217-0.103-0.4-0.226-0.556c0.44-2.397,0.994-4.36,1.623-5.972
	c0.133,1.727,0.757,3.413,1.88,4.829c1.688,2.128,4.064,3.151,6.348,2.737c1.265-0.229,3.044-0.059,5.439,0.521
	c0.079,0.019,0.158,0.028,0.236,0.028c0.451,0,0.86-0.307,0.971-0.765c0.13-0.537-0.2-1.077-0.737-1.207
	c-2.708-0.656-4.699-0.829-6.266-0.544c-1.548,0.279-3.203-0.472-4.425-2.012c-1.204-1.517-2.068-4.071-1.001-6.751
	c0.271-0.742,0.569-1.45,0.888-2.134c1.666-1.596,3.404-2.206,4.828-2.7c0.469-0.164,1.431,0.018,2.576,0.314
	c-0.443,0.819-0.832,1.974-0.549,3.295c0.447,2.083,2.388,3.802,5.768,5.113c6.281,2.434,8.195,6.315,7.936,7.524
	c-0.03,0.142-0.067,0.31-0.534,0.277c-0.554-0.021-1.023,0.394-1.052,0.945c-0.03,0.552,0.394,1.023,0.945,1.052
	c0.062,0.003,0.124,0.005,0.184,0.005c1.247,0,2.164-0.7,2.413-1.859c0.597-2.777-2.739-7.317-9.168-9.81
	c-2.666-1.033-4.233-2.297-4.533-3.654c-0.214-0.97,0.253-1.851,0.589-2.335c6.419,1.819,16.928,4.565,27.756-6.603
	c14.447-14.901,17.62-65.853,17.748-68.014c0.003-0.054-0.009-0.105-0.015-0.157c-0.003-0.035-0.002-0.069-0.009-0.103
	c-0.024-0.114-0.064-0.223-0.123-0.32c-0.009-0.014-0.022-0.024-0.031-0.038c-0.056-0.082-0.123-0.154-0.202-0.217
	c-0.029-0.023-0.061-0.042-0.093-0.061c-0.036-0.023-0.066-0.052-0.105-0.07c-2.021-0.934-4.032-0.996-5.67-0.767
	c3.484-2.152,9.607-2.775,12.255-2.815c0.196-0.003,0.388-0.064,0.55-0.175l18.961-12.976c0.276-0.188,0.439-0.502,0.435-0.837
	c-0.004-0.334-0.174-0.644-0.454-0.826l-2.286-1.491l8.07,1.303c0.115,0.018,0.233,0.017,0.347-0.005l12.476-2.387
	c0.405-0.078,0.721-0.395,0.796-0.8l0.782-4.221l1.23,3.76c0.101,0.312,0.351,0.555,0.666,0.648
	c22.585,6.683,34.859,21.965,35.006,22.15c0.116,0.136,11.705,14.011,15.736,47.734
	C408.367,274.327,406.147,287.789,403.727,301.853z M373.738,318.712c2.78-1.303,6.61-3.448,10.062-6.611
	c6.506-5.962,12.259-8.407,19.586-8.259c-0.55,3.203-1.1,6.484-1.582,9.948C399.227,314.83,387.152,319.349,373.738,318.712z
	 M401.513,316.06c-0.095,0.747-0.195,1.48-0.282,2.246c-0.301,2.662-0.483,5.239-0.621,7.696
	c-16.773,3.328-23.031-2.482-24.977-5.225c0.287,0.004,0.578,0.019,0.863,0.019C387.898,320.796,397.753,317.499,401.513,316.06z
	 M366.428,456.212c-0.596,19.953-6.033,46.061-24.854,72.416c-2.359-5.466-10.915-23.382-28.763-41.987
	c-1.938-2.02-4.083-4.2-6.377-6.531c-6.621-6.729-14.54-14.78-22.242-23.868C290.413,453.625,332.927,437.021,366.428,456.212z
	 M267.215,345.577c-4.638-1.473-20.287-10.629-21.03-37.127c-0.148-5.269-0.02-9.647,0.313-13.3
	c1.531,4.234,5.25,10.377,14.271,14.142c1.957,0.816,3.687,1.459,5.232,1.95c0.617,2.191,2.064,7.602,3.631,15.283
	C269.603,328.25,269.344,336.191,267.215,345.577z M254.355,274.736c4.052-5.833,10.122-9.462,16.894-13.503
	c4.475-2.669,9.101-5.43,13.501-9.075c8.78-7.274,15.601-26.322,19.281-38.673c-1.804,16.249-6.301,45.109-16.145,55.262
	c-10.184,10.503-20.15,7.671-26.104,5.979c-2.419-0.687-4.167-1.185-5.447-0.74C255.72,274.201,255.051,274.433,254.355,274.736z
	 M427.817,257.074c-1.581,1.493-9.385,8.033-19.446,2.431c-0.23-3.211-0.554-6.624-0.992-10.288
	c-0.407-3.409-0.892-6.607-1.429-9.62c3.171,1.8,10.982,6.779,19.146,16.147c0.197,0.227,0.476,0.343,0.754,0.343
	c0.233,0,0.468-0.081,0.657-0.246c0.416-0.363,0.46-0.995,0.097-1.411c-10.238-11.749-19.754-16.684-21.123-17.357
	c-0.353-1.807-0.726-3.54-1.113-5.199c1.097,0.257,2.139,0.378,3.126,0.378c1.609,0,3.07-0.314,4.392-0.824
	C414.121,232.54,426.618,239.528,427.817,257.074z M419.148,221.705c-0.806,1.615-3.268,5.877-7.532,7.697
	c-0.037,0.012-0.071,0.027-0.106,0.044c-2.116,0.877-4.67,1.15-7.681,0.208c-0.603-2.392-1.233-4.621-1.88-6.693
	c1.268-0.236,6.218-0.988,13.271,0.08c0.546,0.086,1.056-0.293,1.138-0.839c0.083-0.546-0.293-1.056-0.839-1.139
	c-7.889-1.193-13.217-0.223-14.188-0.021c-0.431-1.299-0.865-2.529-1.301-3.696C402.327,216.323,410.439,213.628,419.148,221.705z
	 M405.457,211.172c0.366,1.069,0.728,2.105,1.217,2.983c-3.392-0.079-6.039,0.79-7.355,1.339c-1.229-3.1-2.438-5.675-3.534-7.773
	l5.634,3.201c0.156,0.088,0.326,0.13,0.493,0.13c0.348,0,0.687-0.182,0.87-0.506c0.273-0.481,0.105-1.091-0.375-1.364l-8.52-4.84
	c-0.085-0.141-0.166-0.271-0.248-0.403c0.729-0.269,2.53-0.543,6.483,0.587C403.511,205.495,404.5,208.381,405.457,211.172z
	 M419.73,165.418c4.009,3.251,10.956,8.973,12.875,10.555c-0.851,2.621-5.547,13.557-24.846,14.615
	c-0.668,0.037-1.318,0.055-1.955,0.055h-0.001c-17.351-0.001-22.612-13.15-23.807-17.124c6.324,0.761,13.611,0.497,19.767,0.273
	c2.965-0.108,5.531-0.198,7.6-0.169c7.308,0.113,11.03,3.904,11.077,3.953c0.197,0.207,0.461,0.311,0.726,0.311
	c0.246,0,0.493-0.09,0.686-0.272c0.401-0.379,0.42-1.012,0.041-1.414c-0.172-0.182-4.291-4.451-12.499-4.579
	c-2.127-0.033-4.836,0.066-7.703,0.17c-5.966,0.217-13.013,0.473-19.095-0.217c5.154-7.565,11.993-11.405,20.359-11.405
	c0.479,0,0.956,0.014,1.428,0.039c0.27,0.16,0.599,0.205,0.907,0.069C411.836,160.841,417.492,163.602,419.73,165.418z
	 M412.47,141.017c0.277,2.731,0.721,13.089-7.597,17.226c-0.634-0.042-1.271-0.072-1.916-0.072c-5.961,0-14.129,1.964-20.824,10.66
	c-2.533,0.554-6.018-1.175-8.473-2.774c4.604-0.631,10.035-2.926,15.562-8.712c0.382-0.399,0.367-1.033-0.032-1.414
	c-0.398-0.381-1.032-0.366-1.413,0.032c-6.1,6.386-11.942,8.242-16.52,8.361c-0.112-0.076-0.232-0.126-0.36-0.152
	c2.606-2.494,7.106-7.323,8.609-12.213C382.905,140.899,393.996,137.22,412.47,141.017z M368.468,166.119
	c0.642,0.073,1.316,0.117,2.018,0.128c1.399,1.098,5.982,4.431,10.159,4.673c-0.078,0.117-0.155,0.235-0.232,0.355
	c-1.3-0.21-2.544-0.467-3.699-0.794c-4.197-1.188-6.816-2.975-8.329-4.348C368.413,166.132,368.44,166.122,368.468,166.119z
	 M367.995,164.119c-0.646-0.1-1.254-0.224-1.81-0.368c-0.1-0.047-0.204-0.075-0.314-0.087c-1.3-0.361-2.315-0.796-2.979-1.126
	c3.32-0.846,8.97-3.25,14.293-10.041C375.021,157.766,369.322,162.958,367.995,164.119z M358.88,119.394
	c3.193-1.412,15.346-1.693,18.186,1.973c0.975,1.259,0.584,3.017-1.16,5.224c-0.001,0.001-0.001,0.004-0.003,0.005
	c-4.095-1.5-9.366-3.19-15.618-3.356c-1.186-0.713-2.676-1.998-2.637-2.782C357.664,120.121,358.113,119.732,358.88,119.394z
	 M359.955,125.222c6.94,0.128,12.717,2.292,16.935,3.873c3.115,1.167,5.492,2.027,7.135,1.706c0.208-0.041,0.396-0.061,0.558-0.061
	c0.436,0,0.515,0.138,0.553,0.204c0.314,0.549,0.771,3.312-6.561,15.779c-7.722,13.132-17.24,13.88-18.469,13.921
	c-9.107-2.579-16.229-3.106-21.439-3.492c-3.078-0.227-5.51-0.408-7.066-0.943c-2.71-0.934-4.011-4.134-4.534-5.887
	c0.091,0.001,0.171,0.006,0.264,0.006c2.842,0,6.575-0.38,10.97-1.698c2.618-0.786,5.372-1.786,8.289-2.846
	c8.091-2.94,17.263-6.272,26.19-5.787c0.519,0.03,1.022-0.393,1.052-0.944c0.03-0.552-0.393-1.023-0.944-1.053
	c-9.334-0.511-18.71,2.9-26.981,5.905c-2.889,1.049-5.616,2.04-8.18,2.809c-4.439,1.332-8.163,1.64-10.896,1.591
	c0.548-12.157,7.881-18.078,16.182-20.841c0.008,0,0.016,0.004,0.023,0.004c0.212,0,0.415-0.072,0.585-0.195
	C349.306,125.493,355.366,125.132,359.955,125.222z M316.594,107.14c1.705-0.867,3.361-1.687,5.029-2.479
	c6.446-3.061,12.527-5.964,15.235-10.742c3.086,3.079,12.123,14.087,5.403,31.799c-7.783,2.658-15.162,8.037-17.014,18.69
	l-3.512,1.141c-0.543-1.453-1.336-2.753-2.201-3.88c1.645-1.232,5.558-4.748,8.093-11.837c0.878-2.454,1.629-4.777,2.357-7.024
	c1.766-5.461,3.29-10.177,5.438-12.661c0.361-0.417,0.316-1.049-0.102-1.411c-0.418-0.36-1.05-0.315-1.41,0.102
	c-2.414,2.79-3.922,7.452-5.831,13.354c-0.723,2.232-1.469,4.541-2.336,6.966c-2.41,6.738-6.189,10.002-7.513,10.984
	c-1.265-1.34-2.502-2.306-3.23-2.828c3.269-10.389,5.024-22.324,2.5-24.971c-0.594-0.623-1.248-0.823-2.1-0.563
	c-2.003,0.612-4.401,3.152-6.401,6.64c0-0.003,0-0.007,0-0.01C309,118.12,308.492,111.263,316.594,107.14z M324.943,146.61
	c-0.05,0.518-0.084,1.051-0.108,1.592c-1.163-0.105-2.011-0.257-2.5-0.366c-0.019-0.12-0.039-0.239-0.062-0.358L324.943,146.61z
	 M236.483,272.655c-0.196,2.12-1.609,10.688-11.667,11.261c-2.722,0.157-5.038-0.616-6.85-2.295
	c-4.217-3.907-4.674-11.542-4.716-12.576c0.772-0.066,1.586-0.117,2.453-0.15c5.109-0.192,8.812-1.558,11.008-4.059
	c0.512-0.584,0.884-1.177,1.17-1.751c2.475,0.59,5.619,2.894,7.165,4.188C234.665,268.758,234.715,270.983,236.483,272.655z
	 M224.931,285.913c9.395-0.536,12.298-7.271,13.191-11.081c0.943,2.987,3.074,11.805-2.863,16.351
	c-1.733,1.328-3.313,1.757-4.83,1.306c-3.142-0.93-5.123-5.326-5.629-6.572C224.845,285.914,224.887,285.915,224.931,285.913z
	 M238.325,271.577c-1.472-1.038-1.562-2.462-1.426-3.375l2.869,0.86L238.325,271.577z M236.697,266.053
	c-0.841-0.73-4.68-3.933-8.145-4.855c0.116-0.541,0.161-1.005,0.17-1.327c3.582-3.776,3.354-9.771,3.105-12.101
	c0.372,0.044,0.741,0.083,1.102,0.112c0.556,0.045,1.304,0.088,2.132,0.088c2.277,0,5.132-0.34,6.261-1.84
	c1.571-0.21,3.287-0.718,5.125-1.64c0.029,0.848,0.143,1.754,0.363,2.717c0.837,3.67,4.083,6.739,8.358,7.973
	c-4.132,8.392-12.326,11.663-13.924,12.234L236.697,266.053z M228.283,200.746c-0.457-0.311-1.078-0.194-1.39,0.26
	c-1.286,1.879-2.958,3.658-3.754,4.131c0.417-1.002,1.904-2.889,3.477-4.588c0.149-0.046,0.239-0.077,0.257-0.083
	c0.392-0.138,0.645-0.496,0.668-0.886c1.057-1.066,2.058-1.939,2.717-2.311c0.042,0.041,0.091,0.067,0.139,0.099
	c0.006,0.438-0.081,1.136-0.422,2.072c-0.173,0.475-0.572,1.419-1.328,2.501C228.817,201.517,228.677,201.015,228.283,200.746z
	 M223.594,208.303c6.404-2.534,8.978-8.305,8.792-11.214c0.69-0.21,1.67-0.428,2.735-0.434c-1.275,1.208-1.837,3.214-1.915,4.869
	c-0.109,2.32-4.878,5.662-8.034,7.874c-0.963,0.675-1.873,1.312-2.564,1.854c-0.523,0.409-0.934,0.853-1.261,1.314
	c-0.209-0.026-0.426,0.002-0.62,0.113c-0.228-0.02-0.83-0.377-0.969-0.969C219.564,210.878,220.469,209.539,223.594,208.303z
	 M250.866,200.46c0.33,1.695,0.745,3.194,1.257,4.362c-0.653,0.031-1.451,0.188-2.378,0.58c-4.139-5.527-7.562-8.697-10.365-9.57
	c-0.052-0.047-0.093-0.103-0.156-0.14c-2.006-1.178-4.206-1.172-5.896-0.881c-0.109-0.872-0.121-2.323,0.739-3.378
	c0.588-0.722,1.518-1.176,2.775-1.368c0.186,0.014,0.292,0.024,0.303,0.025c0.187,0.018,0.36-0.032,0.52-0.108
	c0.524-0.03,1.092-0.026,1.708,0.018C247.424,190.596,250.632,199.76,250.866,200.46z M247.046,191.148l2.74-0.878
	c0.061,1.387,0.153,2.819,0.28,4.244C249.265,193.362,248.266,192.184,247.046,191.148z M255.011,205.454
	c-0.112,0-0.255-0.128-0.331-0.205c-1.788-1.809-3.103-10.872-2.994-20.634c0.079-7.107,2.161-9.64,4.082-9.64
	c0.103,0,0.174,0.009,0.277,0.025c1.028,0.124,1.905,0.93,2.607,2.396c2.81,5.872,1.657,20.465-2.091,26.465
	C255.776,205.118,255.218,205.454,255.011,205.454z M255.208,216.623l-0.468-9.193c0.094,0.012,0.189,0.024,0.27,0.024h0.001
	c0.053,0,0.106-0.011,0.159-0.015L255.208,216.623z M253.121,214.94c-3.144-1.355-8.251,0.143-9.566,0.571
	c-0.274-0.161-0.552-0.314-0.834-0.456c5.124-7.741,8.712-8.306,9.988-8.204L253.121,214.94z M223.842,212.826
	c0.649-0.508,1.538-1.131,2.479-1.79c3.889-2.725,8.729-6.117,8.884-9.418c0.076-1.629,0.745-3.56,2.031-3.952
	c1.025-0.313,4.121-0.048,10.732,8.706c-1.997,1.328-4.407,3.719-7.125,7.893c-5.649-1.963-12.381-0.692-18.499,2.558
	C222.155,215.835,222.156,214.147,223.842,212.826z M242.129,218.506c4.048,0.397,6.931,2.905,8.447,7.286
	c-2.449-1.762-5.395-2.199-8.034-1.804c-1.458,0.218-2.414,0.779-2.84,1.666c-0.021,0.044-0.03,0.088-0.048,0.132
	c-0.021-0.125-0.064-0.249-0.135-0.363c-0.291-0.469-0.907-0.615-1.376-0.325c-3.947,2.441-5.618,4.102-5.534,5.551
	c-0.62,0.302-2.669,1.383-4.068,3.048c-0.422-0.171-1.394-0.667-1.938-1.807c-0.655-1.371-0.492-3.239,0.483-5.554
	C228.781,222.314,236.049,217.906,242.129,218.506z M260.995,241.056c-0.522-0.188-1.093,0.087-1.279,0.606
	c-0.305,0.851-0.704,1.741-1.044,2.36c-0.005-0.042-0.011-0.078-0.016-0.124c-0.174-1.578,0.014-2.653,0.542-3.14
	c0.478-0.441,1.358-0.485,2.766-0.21c1.703,0.331,3.2,3.221,3.186,5.985c-0.418,0.416-0.816,0.87-1.182,1.318
	c-0.807,0.989-2.537,1.821-4.024,1.934c-0.632,0.053-1.511-0.007-2.11-0.547c-0.592-0.534-0.481-1.657-0.16-2.731
	c0.164,0.107,0.345,0.193,0.57,0.219c0.467,0.053,1.708,0.204,3.355-4.393C261.785,241.814,261.515,241.242,260.995,241.056z
	 M262.346,238.518c-1.312-0.257-3.207-0.458-4.502,0.735c-0.992,0.915-1.382,2.399-1.202,4.517
	c-0.105,0.195-0.241,0.465-0.389,0.799c-1.316,0.465-2.43,0.426-3.398-0.132c-2.048-1.18-2.901-4.279-3.125-5.256
	c0.965-1.668,2.137-2.522,2.232-2.589c0.041-0.029,0.08-0.06,0.117-0.095c0.029-0.027,1.171-1.091,3.223-2.366
	c4.248,0.879,5.961,2.295,6.645,3.369c0.24,0.377,0.361,0.727,0.421,1.024C262.36,238.523,262.353,238.52,262.346,238.518z
	 M250.753,234.997c-0.02,0.015-0.056,0.043-0.084,0.064c-1.776-3.658-5.707-4.928-7.694-5.346c0.248-0.965,0.284-1.99,0.213-2.782
	c-0.029-0.33-0.22-0.623-0.509-0.784c-0.084-0.046-0.172-0.077-0.263-0.097c0.13-0.032,0.261-0.063,0.422-0.087
	c2.406-0.36,8.144-0.34,10.247,7.21C251.777,234.079,250.973,234.794,250.753,234.997z M229.32,236.366
	c-0.01-0.015-0.024-0.024-0.035-0.039c0.563-1.867,3.276-3.463,4.335-3.944c0.054-0.024,0.091-0.067,0.139-0.1
	c0.629,0.306,1.647,0.545,3.329,0.545c0.828,0,1.817-0.058,2.998-0.195c0.871-0.101,1.515-0.496,1.986-1.051
	c1.423,0.244,5.715,1.285,7.057,4.986c-0.999,1.191-2.141,3.041-2.54,5.571c-6.297,3.658-10.977,1.707-13.22,0.196
	c-2.35-1.583-3.666-3.665-4.044-4.901C229.523,237.117,229.538,236.702,229.32,236.366z M237.304,229.466
	c0.247,0.494,0.846,0.695,1.342,0.447l2.493-1.246c-0.124,0.904-0.451,1.884-1.283,1.98c-2.942,0.339-4.747,0.123-5.22-0.16
	c0.129-0.302,0.827-1.38,4.559-3.688c0.117-0.072,0.213-0.165,0.289-0.271c-0.013,0.255,0.013,0.493,0.059,0.701l-1.791,0.895
	C237.258,228.372,237.057,228.972,237.304,229.466z M232.251,243.996c1.031,0.695,2.506,1.464,4.342,1.901
	c-0.967,0.086-2.126,0.103-3.503-0.008c-4.899-0.395-9.128-2.075-9.629-3.825c-0.284-0.992-0.134-1.806,0.458-2.488
	c0.877-1.011,2.473-1.524,3.462-1.688C227.901,239.767,229.591,242.204,232.251,243.996z M248.761,246.764
	c-0.401-1.76-0.381-3.281-0.138-4.577c0.633,1.448,1.648,3.067,3.226,3.98c0.839,0.485,1.749,0.728,2.719,0.728
	c0.313,0,0.634-0.032,0.96-0.083c-0.265,1.374-0.179,2.878,0.966,3.912c0.891,0.804,2.139,1.17,3.603,1.057
	c2.04-0.156,4.269-1.252,5.421-2.665c1.621-1.987,2.294-2.089,2.296-2.118c0.258,0.232,0.418,1.451,0.354,2.586
	c-2.988,3.458-7.398,4.89-11.854,3.836C252.439,252.502,249.474,249.89,248.761,246.764z M264.419,238.908
	c-0.015-0.635-0.174-1.482-0.73-2.393c-1.013-1.658-2.969-2.93-5.833-3.8c3.285-1.618,7.832-3.105,13.252-2.945
	c2.887,0.086,4.958,1.027,5.683,2.582c0.528,1.134,0.276,2.484-0.689,3.705C274.442,238.151,270.527,239.939,264.419,238.908z
	 M261.753,229.017c-2.761,0.828-5.073,1.947-6.856,3c-0.024-0.004-0.049-0.008-0.073-0.013c-0.447-1.393-1.025-2.581-1.705-3.579
	c0.083-0.185,0.127-0.39,0.083-0.604c-1.024-4.972-3.4-8.456-6.833-10.165c-0.026-0.031-0.039-0.068-0.069-0.097
	c-0.211-0.197-0.429-0.38-0.647-0.563c2.195-0.544,5.394-1.025,7.004-0.059c0.263,0.158,0.449,0.299,0.587,0.431l0.065,1.274
	c-0.159,0.317-0.42,0.874-0.042,1.419c0.161,0.233,0.481,0.482,1.044,0.469c0.015,0.001,0.028,0.008,0.044,0.008
	c0.017,0,0.035-0.001,0.052-0.001c0.007,0,0.013-0.004,0.02-0.005c0.014-0.001,0.023,0.002,0.037,0.001
	c0.13-0.013,0.526-0.003,1.069,0.078c0.18,0.228,0.422,0.39,0.69,0.39c0.001,0,0.003,0,0.004,0c0.155,0,0.3-0.059,0.431-0.151
	c0.737,0.202,1.565,0.523,2.343,1.025c0.002,0.002,0.003,0.004,0.005,0.005c0.002,0.002,0.004,0.002,0.006,0.002
	c0.427,0.277,0.839,0.608,1.21,1.005C261.588,224.35,262.094,226.415,261.753,229.017z M259.208,219.705
	c-0.673-0.339-1.349-0.586-1.99-0.766l-0.037-8.949c0.301,0.063,0.64,0.106,1.015,0.106c1.145,0,2.615-0.385,4.293-1.698
	c0.926-0.725,1.892-1.612,2.914-2.551c1.6-1.47,3.438-3.142,5.658-4.696L259.208,219.705z M264.05,204.373
	c-0.992,0.912-1.929,1.773-2.793,2.449c-2.009,1.572-3.452,1.335-4.084,1.092l-0.006-1.56c0.365-0.379,0.728-0.851,1.091-1.432
	c0.841-1.346,1.552-3.076,2.136-5.014c0.004-0.009,0.012-0.015,0.016-0.025c4.313-11.171,14.716-16.964,20.725-17.509
	c2.135-0.193,3.7,0.264,4.305,1.251c0.761,1.242,0.908,2.601,0.437,4.037c-1.023,3.123-4.9,6.456-9.877,8.491
	C270.586,198.367,266.962,201.697,264.05,204.373z M268.878,147.429c0.515,1.575,1.5,3.054,3.194,4.159
	c-0.262,0.864-0.506,1.729-0.739,2.593c-0.696-1.585-1.668-2.838-2.758-3.724C268.894,149.542,268.987,148.51,268.878,147.429z
	 M273.37,147.693c-0.228,0.629-0.449,1.26-0.659,1.893c-2.98-2.341-2.408-6.276-1.935-8.087c3.057,1.528,2.478,5.335,2.449,5.51
	C273.184,147.257,273.247,147.494,273.37,147.693z M282.051,147.646c1.081-1.983,0.633-3.586,0.579-3.763
	c-0.075-0.241-0.238-0.445-0.457-0.571c-1.657-0.951-3.415-0.591-4.848,0.083c1.688-3.723,3.744-7.226,6.234-10.295
	c1.763,0.927,3.443,1.402,5.004,1.402c3.853,0,5.834-2.757,6.464-3.841c1.145-0.289,4.44-0.742,5.808,3.046
	c-0.646,1.484-1.255,2.94-1.82,4.337c-2.139,0.402-6.904,4.138-8.363,5.314c-0.163,0.132-0.256,0.309-0.312,0.495
	c-0.418,0.109-0.825,0.238-1.213,0.379c0.158-0.385,0.311-0.801,0.443-1.287c0.145-0.533-0.169-1.082-0.703-1.227
	c-0.534-0.145-1.083,0.169-1.227,0.703c-0.294,1.082-0.68,1.805-0.998,2.261c-0.681-0.939-1.663-2.783-1.626-5.669
	c0.007-0.552-0.435-1.006-0.987-1.013c-0.587-0.019-1.006,0.435-1.013,0.987c-0.053,4.166,1.742,6.648,2.552,7.553
	c-0.663,5.815-5.449,22.501-6.281,25.374c-3.304,2.879-6.869,6.339-9.732,9.337c0.129-3.739,0.494-9.319,1.48-15.593
	c0.117,0.004,0.235,0.015,0.35,0.015c4.536,0,7.979-3.118,9.739-6.168c1.546-2.679,1.888-5.357,0.871-6.823
	c-0.369-0.532-1.253-1.376-3.036-1.081c-2.43,0.406-4.273,1.691-5.631,3.128c0.155-0.576,0.32-1.153,0.487-1.729
	C278.008,151.762,280.787,149.965,282.051,147.646z M274.527,150.672c0.428-1.324,0.897-2.638,1.4-3.938
	c0.615-0.557,2.953-2.507,4.841-1.872C280.811,145.887,280.318,148.631,274.527,150.672z M277.21,139.03
	c-1.714-0.75-2.363-2.871-2.525-3.556c-0.393-1.655-0.136-3.107,0.327-3.504c0.063-0.053,0.208-0.181,0.661,0.004
	c2.704,1.102,2.559,4.55,2.481,5.39C277.83,137.914,277.514,138.468,277.21,139.03z M282.659,130.442
	c-1.193-0.565-3.298-1.948-2.575-4.452c0.052-0.181,0.245-0.769,0.537-0.769c0.362,0,1.138,0.499,1.727,1.61
	C282.604,127.315,283.295,128.858,282.659,130.442z M284.743,131.464c0.928-0.798,2.606-1.869,4.919-1.869
	c1.044,0,2.129,0.223,3.235,0.663c-0.693,0.917-2.085,2.244-4.334,2.244C287.399,132.502,286.118,132.153,284.743,131.464z
	 M294.306,155.212c-0.013,0.017-0.032,0.026-0.044,0.043c-3.975,5.928-8.45,7.69-10.534,8.208
	c1.548-5.733,3.285-12.615,3.774-16.297c1.464-0.811,4.534-2.162,6.264-1.434c0.635,0.267,1.044,0.831,1.25,1.723
	c0.054,0.232,0.185,0.427,0.36,0.563c-0.104,0.348-0.193,0.663-0.255,0.91C294.463,151.57,294.292,153.676,294.306,155.212z
	 M294.711,158.332c-0.415,0.526-0.832,1.08-1.262,1.652c-1.887,2.515-3.839,5.115-6.462,6.288c-1.252,0.56-2.997,1.775-4.964,3.35
	c0.322-1.137,0.704-2.5,1.118-4.005c1.554-0.23,6.713-1.441,11.48-7.472c0.004,0.016,0.01,0.035,0.011,0.04
	C294.65,158.24,294.686,158.281,294.711,158.332z M294.538,143.887c-0.31-0.13-0.637-0.21-0.971-0.268
	c1.615-1.222,3.266-2.36,4.437-3.024c-0.684,1.765-1.273,3.367-1.745,4.724C295.741,144.544,295.087,144.118,294.538,143.887z
	 M271.363,163.667c0.167-0.956,0.355-1.928,0.553-2.906c0.068-0.087,0.131-0.181,0.169-0.292c0.021-0.06,2.1-6.044,7.203-6.897
	c0.798-0.134,0.997,0.154,1.062,0.248c0.461,0.665,0.281,2.532-0.96,4.684C277.915,161.06,275.066,163.673,271.363,163.667z
	 M270.343,158.185c-0.494,2.197-0.902,4.361-1.242,6.455c-1.775-0.825-6.71-3.658-6.873-9.757c-0.063-2.371,0.812-3.84,2.344-3.931
	C266.645,150.837,269.77,153.278,270.343,158.185z M265.45,164.756c1.465,1.105,2.792,1.708,3.338,1.931
	c-1.516,10.499-1.31,18.772-1.288,19.479c0.005,0.175,0.067,0.314,0.151,0.436c-2.11,1.754-4.118,3.873-5.834,6.369
	c0.764-6.189,0.398-12.763-1.36-16.436c-0.068-0.142-0.142-0.258-0.212-0.389C264.337,173.528,265.261,167.864,265.45,164.756z
	 M270.969,184.188c-0.496,0.314-0.989,0.649-1.481,1.002c-0.001-0.262,0-0.581,0.002-0.948c2.906-3.16,7.108-7.314,10.921-10.663
	c0.256-0.079,0.467-0.263,0.592-0.513c2.744-2.372,5.233-4.269,6.801-4.97c3.096-1.384,5.3-4.321,7.245-6.913
	c0.79-1.053,1.536-2.047,2.277-2.854c0.324-0.353,0.569-0.575,0.747-0.715c-0.214,1.033-1.817,7.81-7.425,10.639
	c-6.626,3.343-19.13,15.393-19.659,15.904C270.98,184.167,270.977,184.179,270.969,184.188z M299.029,161.289
	c0.9,1.143,1.71,2.47,1.644,3.227c-0.013,0.147-0.059,0.228-0.173,0.31c-1.79,1.28-3.623,1.952-5.107,2.306
	C297.18,165.235,298.324,163.065,299.029,161.289z M320.24,152.611c0.09,0.178,0.235,0.317,0.417,0.416
	c0.581,0.606,0.99,1.198,1.126,1.746c0.088,0.354,0.048,0.661-0.124,0.964c-2.435-1.865-7.093-2.13-9.53-2.265l-0.506-0.029
	c-1.479-0.091-2.664-0.479-3.425-0.799c1.108-1.727,2.105-3.588,2.978-5.437C314.118,148.481,318.068,150.598,320.24,152.611z
	 M312,145.386c0.042-0.097,0.084-0.193,0.125-0.29c0.134,0.196,0.284,0.377,0.446,0.544C312.361,145.545,312.169,145.46,312,145.386
	z M313.501,141.676c0.144-0.385,0.284-0.763,0.413-1.124c0.145-0.404,0.287-0.814,0.428-1.227c2.067,1.605,6.435,5.643,6.096,10.848
	c-0.022-0.017-0.045-0.033-0.067-0.05C318.942,144.31,315.079,142.273,313.501,141.676z M317.619,148.258
	c-0.658-0.395-1.314-0.762-1.948-1.099c0.4-0.047,0.747-0.327,0.852-0.74C316.916,146.941,317.288,147.553,317.619,148.258z
	 M315.227,145.026c-0.443-0.172-1.039-0.483-1.395-0.992C314.255,144.274,314.734,144.597,315.227,145.026z M311.5,155.44
	l0.518,0.03c2.138,0.118,7.816,0.433,9.01,2.467c0.118,0.202,0.479,0.816-0.166,2.137c-1.442,2.955-7.262,4.64-12.058,4.955
	c-3.411,0.228-5.518-0.27-6.146-0.757c-0.084-1.492-1.22-3.198-2.158-4.36c2.452-0.894,4.646-2.985,6.552-5.582
	C307.949,154.746,309.507,155.317,311.5,155.44z M307.797,169.313c-1.604,0.808-6.958,1.739-8.545,0.322
	c-0.523-0.467-1.209-0.768-1.979-0.952c1.37-0.456,2.889-1.157,4.391-2.231c0.113-0.081,0.209-0.175,0.305-0.269
	c1.104,0.573,2.653,0.797,4.089,0.868c0.16,1.327,1.115,1.9,1.688,2.231C307.762,169.292,307.779,169.303,307.797,169.313z
	 M297.919,171.127c1.025,0.915,2.686,1.244,4.422,1.243c2.194,0,4.51-0.523,5.812-1.046c0.783-0.314,1.833-0.842,1.909-1.806
	c0.091-1.153-0.791-1.662-1.318-1.966c-0.318-0.184-0.525-0.306-0.635-0.486c0.307-0.011,0.586-0.025,0.824-0.042
	c4.792-0.315,10.932-1.903,13.284-5.328c1.206,0.402,2.906,1.163,3.322,2.007c0.098,0.196,0.1,0.363,0.009,0.576
	c-0.937,2.195-10.729,6.19-13.807,5.619c-0.272-0.051-0.55,0.013-0.771,0.175c-0.079,0.058-7.922,5.695-12.715,1.933
	c-0.852-0.668-1.675-1.164-2.467-1.547C296.709,170.525,297.473,170.727,297.919,171.127z M308.372,122.82
	c0.198-0.13,0.329-0.33,0.347-0.606c2.581-4.509,5.133-7.911,7.128-8.521c0.141-0.044,0.153-0.026,0.207,0.03
	c1.565,1.641,0.565,13.346-4.022,26.153c-1.873,5.23-3.948,9.472-6.094,12.578c-0.011,0.016-0.028,0.024-0.039,0.04
	c-0.008,0.012-0.008,0.025-0.015,0.037c-1.919,2.761-3.894,4.602-5.833,5.393c0.008-0.04,0.017-0.087,0.02-0.102
	c0.008-0.043,0.012-0.085,0.014-0.129c0.012-0.286,0.016-1.733-1.093-2.192c-0.931-0.384-1.874,0.243-2.622,0.952
	c-0.125-1.309-0.141-3.696,0.691-7.044C298.129,145.113,303.262,131.933,308.372,122.82z M281.046,98.644
	c1.487-1.506,3.217-1.961,5.287-1.369c0.43,0.123,0.52,0.129,0.295,1.606c-0.311,2.043-0.831,5.422,5.133,7.248
	c6.507,1.992,15.069,5.715,14.957,15.587c-1.684,2.963-3.327,6.301-4.828,9.613c-0.631-0.972-1.443-1.707-2.435-2.19
	c-2.022-0.985-4.167-0.605-5.038-0.382c-1.606-0.76-3.204-1.163-4.756-1.163c-1.958,0-3.552,0.604-4.75,1.31
	c-0.021-1.004-0.277-2.031-0.797-3.011c-0.862-1.623-2.233-2.672-3.494-2.672c-0.122,0-0.287,0.015-0.47,0.054
	c-0.324-0.523-0.95-1.324-2.074-2.174c0.007-0.025,0.024-0.044,0.03-0.07c0.048-0.234,1.17-5.8-0.184-10.322
	C277.118,108.023,278.098,101.63,281.046,98.644z M253.769,117.974c2.039,0.286,6.07,0.8,13.027,1.5
	c9.327,0.938,11.492,4.509,11.763,5.039c-0.15,0.258-0.289,0.551-0.397,0.923c-1.009,3.497,1.438,5.725,3.515,6.753
	c-0.6,0.758-1.18,1.533-1.73,2.334c-0.375-1.658-1.306-3.498-3.52-4.4c-1.374-0.56-2.292-0.034-2.717,0.33
	c-0.467,0.4-0.767,0.955-0.958,1.574C260.2,129.533,255.298,121.402,253.769,117.974z M267.309,136.305
	c1.983-1.031,4.452-0.501,5.477-0.205c0.573,2.243,1.84,3.932,3.495,4.714c-0.469,0.947-0.908,1.911-1.329,2.884
	c-0.549-1.853-1.85-3.703-4.537-4.473c-0.498-0.141-1.02,0.118-1.208,0.599c-0.532,1.369-0.964,3.458-0.748,5.595
	c-0.653-2.138-1.96-4.262-3.69-5.822C265.276,138.027,266.127,136.919,267.309,136.305z M245.208,148.627
	c0.058-0.246,0.175-0.401,0.391-0.517c0.646-0.348,1.095-0.468,1.528-0.584c1.664-0.446,2.376-0.965,4.454-5.421
	c0.911-1.954,2.132-3.175,3.628-3.628c2.342-0.71,5.058,0.494,6.925,1.627c3.401,2.065,5.271,6.601,4.677,9.283
	c-0.786-0.326-1.588-0.481-2.358-0.432c-0.12,0.007-0.24,0.021-0.362,0.039c-0.529-1.554-1.611-2.884-2.974-3.67
	c-1.396-0.807-3.028-0.896-4.718-0.433c-3.264,0.898-4.571,4.109-5.016,6.109c-0.004,0-0.008,0-0.012,0
	c-2.09,0-3.626,0.309-4.679,1.302c-0.094,0.089-0.167,0.183-0.25,0.275C245.683,151.229,244.986,149.57,245.208,148.627z
	 M242.458,134.309c0.399-0.477,1.136-1.209,1.897-1.209c0.105,0,0.21,0.014,0.316,0.044c0.882,0.256,1.65,1.59,1.868,3.243
	c0.343,2.597-0.554,6.128-4.004,8.534c-0.027-0.043-0.057-0.083-0.09-0.122C242.262,144.59,238.028,139.601,242.458,134.309z
	 M244.246,159.394c0.188-0.011,0.376-0.067,0.539-0.189c0.045-0.034,0.071-0.082,0.109-0.122c1.437-0.73,2.289-1.444,2.29-2.427
	c0.001-1.087,0.069-2.31,0.883-3.079c0.759-0.717,2.123-1.023,4.049-0.914c0.503,0.03,0.959-0.33,1.044-0.833
	c0.007-0.043,0.773-4.364,3.771-5.188c1.18-0.325,2.252-0.212,3.188,0.329c1.16,0.669,1.839,1.846,2.124,2.786
	c-1.183,0.873-2.085,2.508-2.013,5.178c0.096,3.573,1.558,6.181,3.262,8.036c0.023,1.398-0.078,8.825-4.412,11.518
	c-0.96-1.006-1.961-1.373-2.699-1.458c-0.06-0.013-0.28-0.056-0.611-0.056c-0.946,0-2.557,0.333-3.884,2.18
	c-8.776,2.174-19.005,3.198-20.258,1.065c-0.437-0.744,0.427-2.392,2.311-4.409c0.342-0.366,0.353-0.938,0.036-1.325
	c-0.068-0.083-1.638-2.065,0.116-5.358c1.012-1.9,4.752-3.453,7.758-4.702C242.743,160.055,243.542,159.72,244.246,159.394z
	 M224.126,170.286c-3.162-1.935-7.308-6.656-9.783-18.119c1.172,0.675,2.803,1.188,4.979,0.993
	c1.647-0.147,15.678-1.18,21.881,5.369c-0.04,0.017-0.083,0.035-0.122,0.051c-3.177,1.32-6.735,2.802-8.352,4.984
	c-2.325-0.428-10.57-2.279-12.416-7.255c-0.192-0.519-0.768-0.783-1.285-0.59c-0.518,0.192-0.782,0.768-0.59,1.285
	c2.078,5.604,10.137,7.767,13.331,8.415c-0.978,2.63-0.341,4.593,0.188,5.603c-0.157,0.179-0.287,0.348-0.428,0.522
	c-0.141-0.019-0.286-0.015-0.431,0.03C230.968,171.613,227.827,172.551,224.126,170.286z M228.751,185.858
	c1.781,0.155,3.785-1.783,4.242-2.253c0.372-0.383,0.377-0.99,0.012-1.38c-0.771-0.824-0.709-2.269-0.508-3.306
	c1.204,0.338,2.695,0.475,4.32,0.475c4.778,0,10.712-1.182,13.895-1.904c-0.588,1.682-0.991,3.968-1.026,7.103
	c-0.012,1.078-0.002,2.304,0.029,3.6l-4.705,1.507c-1.552-0.901-3.372-1.537-5.492-1.693c-0.983-0.074-1.873-0.049-2.688,0.052
	c-1.128-0.08-3.934-0.202-7.077,0.227C228.731,187.309,228.633,186.434,228.751,185.858z M221.939,193.399
	c2.764-2.46,7.306-3.191,10.708-3.364c-0.045,0.051-0.098,0.095-0.142,0.149c-1.342,1.658-1.314,3.767-1.151,4.975
	c-0.204-0.103-0.417-0.158-0.618-0.158c-0.009,0-0.018,0-0.027,0c-1.14,0-3.265,1.735-5.228,3.797
	c-1.041,0.283-3.206,0.786-6.588,1.195C218.623,198.904,218.542,196.423,221.939,193.399z M213.475,204.797
	c0.623-1.069,1.975-2.41,4.872-2.73c2.016-0.223,3.647-0.482,4.929-0.726c-1.025,1.305-1.813,2.519-2.082,3.302
	c-0.443,1.289,0.085,1.961,0.439,2.224c0.038,0.028,0.076,0.054,0.115,0.079c-3.141,1.495-3.929,3.151-4.009,4.328
	c-0.083,1.217,0.589,2.411,1.71,3.042c0.326,0.183,0.653,0.276,0.973,0.323c-0.27,1.207-0.136,2.367,0.114,3.212
	c-0.6,0.365-1.193,0.744-1.775,1.144c-1.413-0.029-3.674-0.345-4.561-1.225c-0.227-0.226-0.201-0.437-0.201-0.726v-0.79
	c0-3.166-0.112-7.106-0.856-8.839C212.969,207.006,212.811,205.935,213.475,204.797z M216.389,220.77
	c-0.439,0.355-0.872,0.72-1.295,1.094c-0.447-0.587-1.204-1.524-2.206-2.592C213.799,220.117,215.168,220.55,216.389,220.77z
	 M190.066,204.815c-1.449-5.891-2.288-9.083-3.152-10.684c0.497,0.353,1.032,0.938,1.468,1.875c2.151,4.621,5.565,5.73,9.171,6.541
	l0.372,0.083c3.388,0.753,10.436,2.321,13.263,8.48c0.132,0.289,0.389,0.47,0.675,0.539c0.105,1.532,0.136,3.242,0.136,4.6v0.794
	c0,0.766,0.181,1.449,0.694,2.024c-1.721-1.803-4.125-3.935-6.975-5.409c-5.34-2.762-11.61-10.164-11.673-10.238
	c-0.357-0.423-0.988-0.477-1.409-0.121c-0.422,0.355-0.477,0.986-0.121,1.409c0.267,0.316,6.588,7.78,12.284,10.726
	c4.457,2.305,7.843,6.505,8.823,7.804c-0.2,0.196-0.4,0.392-0.595,0.592c-2.907,2.993-4.594,5.624-5.531,7.851
	c-1.531,0.43-7.896,1.561-11.794-7.852C193.337,218.114,191.524,210.74,190.066,204.815z M183.662,246.356
	c-5.088-3.019-7.219-7.582-7.989-9.777c2.639-0.418,6.792-2.993,10.337-6.611c4.124-4.209,7.783-4.048,8.477-3.972
	c3.331,6.804,8.105,7.945,11.157,7.91c-2.737,2.546-8.994,6.413-20.105,3.626c-0.534-0.13-1.079,0.191-1.213,0.727
	c-0.134,0.536,0.191,1.079,0.727,1.213c2.951,0.739,5.586,1.047,7.932,1.047c6.722-0.001,11.035-2.523,13.484-4.643
	c-0.096,1.793,0.32,3.046,0.617,3.69c-0.44,1.346-0.317,2.892,0.362,4.412c0.512,1.145,1.313,2.226,2.348,3.216
	C198.792,250.39,189.999,250.116,183.662,246.356z M209.273,243.163c-0.525-1.176-0.589-2.333-0.178-3.257
	c0.136-0.307,0.102-0.674-0.079-0.957c-0.031-0.049-3.033-4.997,5.446-13.725c7.378-7.594,18.43-12.169,26.504-8.775
	c-6.788-0.009-13.843,4.65-15.723,9.111c-1.216,2.885-1.359,5.319-0.425,7.233c0.724,1.485,1.913,2.255,2.678,2.621
	c-0.061,0.154-0.114,0.312-0.157,0.472c-1.281,0.172-2.66,0.758-2.683,0.769c-2.712,1.235-3.848,3.407-3.117,5.958
	c0.695,2.429,4.038,3.938,7.62,4.712c-1.693,1.344-5.851,3.905-11.365,2.126C213.554,248.085,210.448,245.792,209.273,243.163z
	 M215.283,253.834c1.622-0.793,3.805-1.914,3.909-1.967c0.007-0.003,0.01-0.01,0.017-0.014c0.814,0.141,1.601,0.212,2.35,0.212
	c3.796,0,6.713-1.611,8.365-2.812c0.1,2.397-0.141,6.333-2.409,8.971c-3.129,2.527-6.657,2.682-9.802,2.429
	c0.028-0.955,0.55-1.168,0.706-1.207c0.518-0.097,0.871-0.579,0.808-1.102c-0.062-0.523-0.521-0.91-1.045-0.879
	c-0.712,0.033-1.258-0.149-1.698-0.566C215.686,256.141,215.378,254.737,215.283,253.834z M201.629,269.759
	c-1.591,0.638-1.927,0.718-2.117,0.508c-0.576-0.634-0.549-1.308-0.425-1.762c0.204-0.747,0.797-1.39,1.477-1.6
	c0.249-0.077,0.558-0.103,0.901-0.103c0.358,0,0.755,0.029,1.164,0.058c1.625,0.118,3.65,0.265,5.628-1.081
	c1.348-0.917,1.823-1.843,2.17-2.519c0.372-0.723,0.497-0.967,1.88-1.053c0.767-0.046,1.788,0.071,2.976,0.208
	c3.155,0.362,7.278,0.838,11.193-1.146c-0.007,0.024-0.019,0.05-0.027,0.074c-0.119,0.149-0.21,0.322-0.228,0.526
	c-0.001,0.017,0.006,0.032,0.005,0.049c-0.23,0.522-0.56,1.082-1.051,1.634c-1.825,2.049-5.038,3.174-9.549,3.343
	C208.059,267.18,204.034,268.794,201.629,269.759z M220.61,288.897c-0.999-1.822-2.799-3.399-4.539-4.925
	c-3.622-3.175-5.814-5.38-3.794-8.557c0.754,2.643,2.06,5.566,4.325,7.667c1.712,1.589,3.769,2.51,6.127,2.769
	c-0.008,0.13,0.009,0.265,0.055,0.396c0.071,0.202,1.355,3.739,3.849,6.162C224.532,292.159,221.946,291.333,220.61,288.897z
	 M224.571,294.064c1.352,0.351,2.662,0.448,3.674,0.448c0.775,0,1.372-0.055,1.685-0.091c0.552,0.157,1.109,0.24,1.671,0.24
	c1.597,0,3.23-0.632,4.874-1.891c7.989-6.117,3.803-17.997,3.211-19.548l2.254-3.929c1.985-0.695,10.845-4.26,15.238-13.693
	c0.68,0.097,1.358,0.162,2.027,0.162c4.111,0,7.96-1.81,10.707-5.146c0.126-0.154,0.205-0.342,0.224-0.54
	c0.092-0.967,0.255-4.179-1.538-4.916c-0.509-0.209-1.026-0.16-1.538,0.03c-0.189-1.452-0.678-2.913-1.417-4.103
	c6.099,0.621,10.164-1.438,12.025-3.79c1.431-1.809,1.78-3.973,0.934-5.79c-1.056-2.266-3.766-3.627-7.436-3.736
	c-2.667-0.077-5.126,0.208-7.344,0.705c0.216-2.855-0.495-5.192-2.139-6.953c-0.25-0.268-0.518-0.51-0.793-0.735l14.02-21.946
	c0.591-0.294,1.205-0.574,1.845-0.835c5.582-2.283,9.805-6.007,11.021-9.72c0.652-1.991,0.434-3.964-0.633-5.705
	c-1.033-1.686-3.227-2.465-6.191-2.198c-1.163,0.106-2.481,0.399-3.882,0.862c3.118-2.81,7.268-6.393,10.804-8.904
	c0.214,0.017,0.433-0.018,0.626-0.143c0.152-0.098,3.757-2.357,8.521,1.383c1.609,1.263,3.421,1.727,5.219,1.727
	c4.23,0,8.377-2.575,9.576-3.385c4.108,0.337,14.225-3.7,15.572-6.857c0.319-0.749,0.301-1.526-0.055-2.246
	c-0.749-1.519-2.923-2.48-4.264-2.947c0.254-0.92,0.215-1.77-0.115-2.539c0.014-0.015,0.033-0.02,0.046-0.035
	c0.74-0.886,0.99-1.925,0.723-3.004c-0.209-0.845-0.75-1.685-1.492-2.494c0.134-0.646,0.213-1.277,0.233-1.892
	c0.616,0.117,1.446,0.242,2.491,0.326c0.451,1.818,1.985,6.531,5.993,7.91c1.801,0.621,4.347,0.854,7.569,1.092
	c5.149,0.381,12.202,0.991,21.18,3.55c0.085,0.024,0.173,0.215,0.261,0.215c0.005,0,0.021,0,0.026,0c0.05,0,0.228-0.005,0.503-0.03
	c0.023,0.3,0.165,0.588,0.438,0.764c0.046,0.029,1.599,1,4.179,1.728c0.77,1.136,3.771,4.879,11.062,6.943
	c1.155,0.327,2.39,0.586,3.673,0.8c0.531,2.008,3.557,11.704,13.228,16.599c2.553,3.058,4.832,9.341,5.832,12.356
	c-3.494-0.765-5.381-0.403-6.364,0.083c-0.76-1.107-1.249-1.691-1.337-1.794c-0.124-0.157-12.579-15.699-35.479-22.647l-2.287-6.989
	c-0.142-0.434-0.542-0.727-1.017-0.687c-0.456,0.03-0.834,0.366-0.917,0.815l-1.372,7.404l-11.632,2.227l-12.554-2.028
	c-0.461-0.077-0.922,0.186-1.092,0.627c-0.171,0.441-0.01,0.94,0.387,1.199l4.984,3.25l-17.482,11.964
	c-2.085,0.069-13.594,0.705-16.021,6.408c-0.166,0.39-0.068,0.841,0.243,1.128c0.312,0.287,0.772,0.346,1.144,0.148
	c0.036-0.019,3.354-1.732,6.788-0.588c-1.376,5.604-9.812,38.321-21.421,47.938c-4.281,3.546-8.84,6.267-13.249,8.897
	c-7.958,4.748-15.509,9.272-19.663,17.774c-3.675,3.685-6.924,11.698-6.376,31.217c0.737,26.275,16.369,37.279,22.562,39.034
	c-1.491,5.951-3.758,12.318-7.188,17.95c-1.444,2.247-3.951,5.757-7.181,8.779c-0.165,0.148-0.323,0.303-0.491,0.447
	c-1.145,1.03-3.056,2.347-4.356,3.161c-6.613,4.146-15.999,8.407-26.329,12.479c-7.751-7.955-6.252-23.08-3.135-34.981
	c0.802-3.064,1.56-5.958,2.112-8.758C222.786,333.389,224.298,300.441,224.571,294.064z M207.725,382.761
	c-2.904-11.456,3.331-26.653,7.154-31.878c1.991-2.723,3.684-9.5,5.06-17.366c-0.506,4.982-1.08,9.461-1.722,12.716
	c-0.54,2.74-1.29,5.604-2.085,8.638c-3.071,11.726-6.59,24.074,2.317,36.559c-1.168,0.448-2.336,0.888-3.5,1.318
	C211.891,390.416,208.7,386.606,207.725,382.761z M433.453,498.527c-0.407,0.924-0.827,1.874-1.252,2.854
	c-2.729,6.283-20.541,17.152-45.628,24.466c-22.207,6.475-57.655,12.628-100.401,5.168c-78.224-13.647-128.522-43.63-135.357-53.26
	c-7.008-9.875-1.643-29.092,3.815-44.73c5.185-14.857,29.702-28.311,45.454-33.12c15.692-4.789,37.629-13.432,49.196-20.682
	c0.697-0.438,1.366-0.92,2.02-1.42c-6.233,42.782,31.172,80.805,53.709,103.709c2.287,2.325,4.427,4.499,6.358,6.514
	c21.015,21.906,28.95,42.782,29.027,42.991c0.129,0.344,0.437,0.591,0.8,0.641c0.047,0.007,0.092,0.01,0.138,0.01
	c0.316,0,0.617-0.149,0.807-0.409c20.067-27.392,25.737-54.652,26.301-75.325c0.051-0.183,0.062-0.367,0.01-0.544
	c0.083-3.605,0.016-7.011-0.16-10.173c-0.884-15.892-4.473-28.277-6.657-34.528c4.664,4.12,13.622,11.133,25.987,20.763
	c18.773,14.621,42.138,32.816,46.632,39.13C441.371,480.582,438.391,487.337,433.453,498.527z M427.002,382.272
	c9.311,14.614,18.649,24.051,26.152,31.633c13.577,13.721,21.772,22.003,17.625,46.015c-3.675,21.271-27.46,34.466-34.926,38.122
	c4.553-10.362,7.498-18.125,0.027-28.621c-4.663-6.551-27.172-24.081-47.031-39.548c-14.198-11.057-27.588-21.501-28.977-23.768
	c-1.613-2.637-2.873-6.109-2.873-8.591v-0.002c0-0.538-0.196-1.095-0.274-1.654c-0.116-0.886-0.169-1.451-0.171-1.471
	c-0.002-0.05-0.032-0.091-0.043-0.138c-1.126-10.205,0.137-23.379,2.278-34.815c4.678,0.639,9.329,1.022,13.764,1.022
	c3.328-0.001,6.536-0.214,9.535-0.691c19.12-3.041,19.608-13.94,20.286-29.024c0.174-3.87,0.353-7.871,0.844-12.209
	c0.147-1.31,0.312-2.586,0.482-3.846C404.819,328.375,409.364,354.589,427.002,382.272z"></path>
</svg>