<?xml version="1.0" encoding="UTF-8"?>
<!-- Uploaded to: SVG Find, www.svgrepo.com, Generator: SVG Find Mixer Tools -->
<svg fill="#000000" width="800px" height="800px" version="1.1" viewBox="144 144 512 512" xmlns="http://www.w3.org/2000/svg">
 <g fill-rule="evenodd">
  <path d="m298.98 187.32c-12.988 0-23.551 10.566-23.551 23.551v336.8c0 12.988 10.559 23.551 23.547 23.551h243.48c12.984 0 23.547-10.566 23.547-23.551v-336.81c0-12.984-10.562-23.551-23.547-23.551h-243.47zm243.48 393.62h-243.48c-18.34 0-33.262-14.918-33.262-33.262v-336.81c0-18.34 14.922-33.258 33.258-33.258h243.48c18.336 0 33.258 14.922 33.258 33.262v336.8c0 18.34-14.922 33.262-33.258 33.262z"/>
  <path d="m501.02 622.38h-243.48c-18.34 0-33.262-14.918-33.262-33.258v-336.81c0-18.344 14.922-33.262 33.258-33.262h13.039c2.6797 0 4.8555 2.1758 4.8555 4.8555 0 2.6797-2.1758 4.8555-4.8555 4.8555h-13.035c-12.988 0-23.551 10.566-23.551 23.551v336.81c0 12.984 10.559 23.551 23.547 23.551h243.48c12.988 0 23.547-10.562 23.547-23.547v-13.035c0-2.6797 2.1758-4.8555 4.8672-4.8555 2.6836-0.003906 4.8438 2.1719 4.8438 4.8555v13.035c0 18.34-14.922 33.262-33.258 33.258z"/>
  <path d="m513.04 312.62h-184.63c-2.6797 0-4.8594-2.1758-4.8594-4.8555 0-2.6797 2.1758-4.8555 4.8555-4.8555l184.64-0.003906c2.6797 0 4.8555 2.1758 4.8555 4.8594 0 2.6797-2.1758 4.8555-4.8555 4.8555z"/>
  <path d="m513.04 360.29h-184.63c-2.6797 0-4.8594-2.1719-4.8594-4.8555s2.1758-4.8555 4.8555-4.8555h184.64c2.6797 0 4.8555 2.1758 4.8555 4.8555s-2.1758 4.8555-4.8555 4.8555z"/>
  <path d="m513.04 407.97h-184.63c-2.6797 0-4.8594-2.1719-4.8594-4.8555 0-2.6797 2.1758-4.8555 4.8555-4.8555l184.64-0.003907c2.6797 0 4.8555 2.1758 4.8555 4.8555 0 2.6797-2.1758 4.8555-4.8555 4.8555z"/>
  <path d="m513.04 455.66h-184.63c-2.6797 0-4.8594-2.1758-4.8594-4.8555 0-2.6836 2.1758-4.8555 4.8555-4.8555h184.64c2.6797 0 4.8555 2.1758 4.8555 4.8555 0 2.6797-2.1758 4.8555-4.8555 4.8555z"/>
 </g>
</svg>